<svg id="Réteg_1" data-name="Réteg 1" xmlns="http://www.w3.org/2000/svg" viewBox="0 0 100 100"><defs><style>.cls-1{fill:#2a2d36;}</style></defs><path class="cls-1" d="M11.72,32.37A1.66,1.66,0,0,0,10.05,34v8.35a3.24,3.24,0,0,1-1.91,2.93,4.37,4.37,0,0,0-1.46,1.17,4.33,4.33,0,0,0-1.45-1.17,3.23,3.23,0,0,1-1.86-2.38A1.62,1.62,0,0,0,4.92,44h0a1.65,1.65,0,0,0,1.65-1.65V34A1.67,1.67,0,0,0,3.29,34,1.66,1.66,0,0,0,0,34v8.35A6.58,6.58,0,0,0,3.66,48.3a1,1,0,0,1,.57,1L2.32,77.7A4.28,4.28,0,0,0,6.6,82.28l0,.09h.24a4.32,4.32,0,0,0,4.05-4.58L9,49.33a1.06,1.06,0,0,1,.57-1,6.58,6.58,0,0,0,3.81-6V34A1.66,1.66,0,0,0,11.72,32.37ZM7.31,78.64a.91.91,0,0,1-.71.3.94.94,0,0,1-.72-.3,1,1,0,0,1-.25-.73l1-14.47L7.66,77.91A1,1,0,0,1,7.31,78.64Z"/><path class="cls-1" d="M8.27,44h0a1.65,1.65,0,0,0,1.65-1.65V34a1.67,1.67,0,0,0-3.32,0v8.35A1.65,1.65,0,0,0,8.27,44Z"/><path class="cls-1" d="M100,47.21a35,35,0,0,0-3.35-16A2.4,2.4,0,0,0,93.94,30a2.33,2.33,0,0,0-1.8,2.31V59.48c0,1.66-.06,3.33-.16,5L90.91,80.17c0,.1,0,.2,0,.3a4.29,4.29,0,0,0,4.3,4.27,2.29,2.29,0,0,0,.37,0,4.28,4.28,0,0,0,4-4.58l-1.3-18.26a12.08,12.08,0,0,1,.4-3.83A41.84,41.84,0,0,0,100,47.21ZM95.91,81.13a.91.91,0,0,1-.71.3.95.95,0,0,1-1-1.05l1-14.47,1,14.47A.94.94,0,0,1,95.91,81.13Zm-.46-24V37.29a39,39,0,0,1,1.22,9.92A38.11,38.11,0,0,1,95.45,57.12Z"/><path class="cls-1" d="M52.93,12a38,38,0,1,0,38,38A38,38,0,0,0,52.93,12Zm0,72.63a34.69,34.69,0,1,1,0-69.37v.05a34.66,34.66,0,1,1,0,69.32Z"/><path class="cls-1" d="M53,21.52h-.65l-.09,0a4.88,4.88,0,0,0-7.38,1.12A28.49,28.49,0,0,0,30.94,68.13a1.65,1.65,0,0,0,1.26.61c3.13,5.5,6.37,10.53,13.74,10.53a14.23,14.23,0,0,0,5.71-1.18,1.63,1.63,0,0,0,1.28.41H53a28.5,28.5,0,0,0,0-57Zm19.88,14A11.88,11.88,0,0,0,68.13,32a30.62,30.62,0,0,0-16.54-2.58A4.89,4.89,0,0,0,54,25.25c0-.13,0-.25,0-.37A25.15,25.15,0,0,1,72.87,35.56ZM71.82,43.3c-.68.5-4.49-1.11-9.41-5.74a23.69,23.69,0,0,0-7.95-5.1h.1a26,26,0,0,1,12,2.46,8.86,8.86,0,0,1,5.3,5.74C72.25,42.82,71.82,43.3,71.82,43.3ZM49,23.64a1.61,1.61,0,1,1-1.6,1.61A1.61,1.61,0,0,1,49,23.64Zm-4.78,2.7a4.89,4.89,0,0,0,3.83,3.73A29.86,29.86,0,0,0,42.5,32a1.63,1.63,0,0,0-.9,1.45,11.19,11.19,0,0,0-8.76,1.27A25,25,0,0,1,44.26,26.34Zm2,20.34a34.33,34.33,0,0,1-5.72,2.94c-1.5.69-3,1.4-4.44,2.14a7.92,7.92,0,1,1,10.16-5.08Zm-18.42.45a11.19,11.19,0,0,0,4.82,6.63,12.09,12.09,0,0,0-3.83,3.72c-.06-.19-.13-.38-.18-.57A25,25,0,0,1,27.85,47.13Zm7.26,20a4.93,4.93,0,0,0,8.54-3.37v0A4.94,4.94,0,1,0,34,65.16c-.66-1.18-1.35-2.4-2.13-3.64a2.17,2.17,0,0,1-.36-1.91c.75-2.49,6.13-5,10.45-7a35.73,35.73,0,0,0,8.12-4.53,3.34,3.34,0,0,1,2.27-1,4.1,4.1,0,0,1,2.13.73,14.51,14.51,0,0,1,5.38,14.09C58.33,67.17,54.54,76,45.94,76,40.42,76,38,72.31,35.11,67.17Zm2-3.37a1.61,1.61,0,1,1,1.61,1.61A1.61,1.61,0,0,1,37.12,63.8ZM71.65,66c-.13.2-.26.38-.38.54-.34.39-.69.76-1,1.13a1,1,0,0,1-.48.24c-.79-.15-2.47-3.94-2.93-10.68a23.48,23.48,0,0,0-2.36-9.15,26.12,26.12,0,0,1,7.2,10.05A8.85,8.85,0,0,1,71.65,66Zm4-6.56a12,12,0,0,0-.82-2.5A30.63,30.63,0,0,0,56,39.51a1.65,1.65,0,0,0-1.09,3.12c.08,0,7.89,3.46,8.64,14.8.21,3.2,1,10.15,3.81,12.74A25,25,0,0,1,56.4,74.85c2.87-2.8,5.14-6.88,6.64-12,1.86-6.49-2.13-14.9-6.82-17.83A6.59,6.59,0,0,0,50,44.27a11.24,11.24,0,0,0-5.24-9.46c2.31-.5,8.79-1.1,15.5,5.16,2.37,2.2,7.65,6.76,11.48,6.76a3.74,3.74,0,0,0,1.74-.37c1.76-.92,2.3-3,1.76-6.12a11.34,11.34,0,0,0-.76-2.14,25.16,25.16,0,0,1,1.18,21.31Z"/><path class="cls-1" d="M56.91,64.72a1.67,1.67,0,0,0-.5-2.3,1.64,1.64,0,0,0-2.27.48,17.61,17.61,0,0,1-11.07,7.16,1.65,1.65,0,1,0,.21,3.29h.23A20.89,20.89,0,0,0,56.91,64.72Z"/><path class="cls-1" d="M46.35,57.12a1.27,1.27,0,0,0,.21.25l.26.21.27.15a1.12,1.12,0,0,0,.31.1,1,1,0,0,0,.34,0,1.27,1.27,0,0,0,.39,0,1.06,1.06,0,0,0,.3-.1l.29-.15a1.64,1.64,0,0,0,.25-.21,1,1,0,0,0,.21-.25,1.51,1.51,0,0,0,.13-.29,1.57,1.57,0,0,0,.12-.3V56.2A1.65,1.65,0,0,0,49,55l-.25-.21-.29-.15-.3-.09a1.77,1.77,0,0,0-1.52.45,1.64,1.64,0,0,0-.47,1.17,1.82,1.82,0,0,0,0,.33,1.49,1.49,0,0,0,.09.3A1.11,1.11,0,0,0,46.35,57.12Z"/><path class="cls-1" d="M44.87,64.22l.21.25.25.19.29.18h.65a1,1,0,0,0,.34,0h.31a.8.8,0,0,0,.27-.18,1.48,1.48,0,0,0,.27-.19,1.64,1.64,0,0,0,.47-1.17,1.72,1.72,0,0,0-.47-1.18,1.67,1.67,0,0,0-1.52-.44,1,1,0,0,0-.3.09,1,1,0,0,0-.29.16l-.25.19a1.73,1.73,0,0,0-.48,1.18v.31a2.19,2.19,0,0,0,.12.33A1.43,1.43,0,0,0,44.87,64.22Z"/><path class="cls-1" d="M55.59,60.82a1.12,1.12,0,0,0,.19.24l.27.22.27.15.32.09H57a1.57,1.57,0,0,0,1.32-.46l.21-.24a1.14,1.14,0,0,0,.15-.29.81.81,0,0,0,0-.31.86.86,0,0,0,0-.32,1.64,1.64,0,0,0-.47-1.17,1.76,1.76,0,0,0-1.5-.46l-.32.1-.27.15-.27.21a1.65,1.65,0,0,0-.48,1.17,1,1,0,0,0,.1.63A.89.89,0,0,0,55.59,60.82Z"/><path class="cls-1" d="M51.25,53.52a1,1,0,0,0,.28.16l.31.09h.69l.3-.09a1,1,0,0,0,.29-.16.72.72,0,0,0,.25-.21,1.27,1.27,0,0,0,.21-.25.89.89,0,0,0,.15-.27,1.19,1.19,0,0,0,.1-.32,1.82,1.82,0,0,0,0-.33,1.59,1.59,0,0,0-.5-1.16,1,1,0,0,0-.25-.21l-.28-.16h-.31a2.36,2.36,0,0,0-.65,0h-.31a1.12,1.12,0,0,0-.28.16A1,1,0,0,0,51,51l0,0a1.63,1.63,0,0,0,0,2.3A.72.72,0,0,0,51.25,53.52Z"/><path class="cls-1" d="M35.74,45.5l.29.15h.63a1.63,1.63,0,0,0,.94-.36,1.56,1.56,0,0,0,.49-1.17.86.86,0,0,0,0-.32,1.61,1.61,0,0,0,0-.31l-.17-.29a1.21,1.21,0,0,0-.21-.24,1.58,1.58,0,0,0-1.47-.46l-.33.09-.28.15-.25.22-.21.24-.16.29a1.61,1.61,0,0,0,0,.31.86.86,0,0,0,0,.32,1.65,1.65,0,0,0,.48,1.17Z"/><path class="cls-1" d="M38,47.38l-.29-.16-.32-.09a1.67,1.67,0,0,0-.63,0l-.31.09-.31.16-.24.21a1.61,1.61,0,0,0-.48,1.17,1.5,1.5,0,0,0,0,.3,2,2,0,0,0,.09.33,2.54,2.54,0,0,0,.16.28l.19.25.25.21.3.16a.85.85,0,0,0,.35.15.76.76,0,0,0,.3,0v0a2.85,2.85,0,0,0,.65-.11l.29-.16.25-.21a1.65,1.65,0,0,0,0-2.33Z"/><path class="cls-1" d="M43.19,42.53,43,42.29a1.61,1.61,0,0,0-1.5-.44h-.3l-.29.15-.25.19-.21.25a1.68,1.68,0,0,0-.15.3.38.38,0,0,0-.1.31,1.61,1.61,0,0,0,0,.31,1.67,1.67,0,0,0,.48,1.18l.25.21.29.16h.3a.91.91,0,0,0,.33,0l-.06.21a1.67,1.67,0,0,0,1.67-1.67v-.3a1.6,1.6,0,0,0-.1-.31A1.77,1.77,0,0,0,43.19,42.53Z"/><path class="cls-1" d="M39.43,37.44l-.28-.15-.31-.1a1.78,1.78,0,0,0-1.51.46,1.65,1.65,0,0,0-.48,1.17,1.67,1.67,0,0,0,1.67,1.67l.32-.14a.81.81,0,0,0,.31,0l.28-.15a1,1,0,0,0,.25-.21,1.67,1.67,0,0,0,0-2.34Z"/></svg>