<svg id="Réteg_1" data-name="Réteg 1" xmlns="http://www.w3.org/2000/svg" viewBox="0 0 100 100"><defs><style>.cls-1{fill:#2a2d36;}</style></defs><g id="Réteg_2" data-name="Réteg 2"><g id="Réteg_1-2" data-name="Réteg 1"><path class="cls-1" d="M47.45,35.41a1.62,1.62,0,0,1-1.25-2.68,7.66,7.66,0,0,0,1.63-5.68c-.42-2.28-2.23-4.34-5.39-6.1a11.85,11.85,0,0,1-5-15.7A9.67,9.67,0,0,1,43.17.46a9.56,9.56,0,0,1,7.34.62A8.08,8.08,0,0,1,54,11.93a6.77,6.77,0,0,1-4,3.35,6.63,6.63,0,0,1-5.16-.44A5.57,5.57,0,0,1,42,11.5a5.66,5.66,0,0,1,.35-4.38,4.87,4.87,0,0,1,2.88-2.44A4.79,4.79,0,0,1,48.94,5a1.63,1.63,0,0,1-1.28,3l-.21-.1a1.7,1.7,0,0,0-1.27-.11,1.78,1.78,0,0,0-1,.82A2.52,2.52,0,0,0,46.29,12,3.53,3.53,0,0,0,51,10.44a4.73,4.73,0,0,0,.29-3.67A4.81,4.81,0,0,0,49,4a6.44,6.44,0,0,0-8.64,2.77A8.61,8.61,0,0,0,44,18.11c4.07,2.27,6.44,5.1,7,8.38a11,11,0,0,1-2.33,8.37A1.58,1.58,0,0,1,47.45,35.41Z"/><path class="cls-1" d="M53,35.28a1.6,1.6,0,0,1-1.3-.62A1.64,1.64,0,0,1,52,32.37a8.59,8.59,0,0,0,1.5-11.86,1.6,1.6,0,0,1,.34-2.23l0,0a1.61,1.61,0,0,1,2.26.34l0,0A11.81,11.81,0,0,1,54,35,1.62,1.62,0,0,1,53,35.28Z"/><path class="cls-1" d="M50,82.68A39.89,39.89,0,0,1,10.15,42.83a1.63,1.63,0,0,1,1.63-1.64H88.24a1.61,1.61,0,0,1,1.61,1.62v0A39.89,39.89,0,0,1,50,82.68ZM13.43,44.46a36.61,36.61,0,0,0,73.14,0Z"/><path class="cls-1" d="M83.63,61.93H16a1.63,1.63,0,1,1-.6-3.21,1.52,1.52,0,0,1,.6,0H83.63a1.63,1.63,0,0,1,0,3.24Z"/><path class="cls-1" d="M69.3,100c-5,0-9.48-2.26-11.39-5.76a1.71,1.71,0,0,0-1.62-.81l-32.58,2.2A5,5,0,0,1,18.36,91c0-.12,0-.23,0-.34a5,5,0,0,1,5-5h.33l32.58,2.2A1.68,1.68,0,0,0,57.85,87c1.84-3.48,6.39-5.76,11.4-5.76,6.82,0,12.36,4.22,12.36,9.4S76.2,100,69.3,100ZM58.5,90.61a5,5,0,0,1,2.27,2.07c1.32,2.44,4.75,4.07,8.53,4.07,4.94,0,9.18-2.81,9.18-6.14S74.24,84.4,69.3,84.4c-3.78,0-7.21,1.64-8.53,4.06A4.88,4.88,0,0,1,58.5,90.61ZM23.38,88.77a1.91,1.91,0,0,0-1.22.48,1.67,1.67,0,0,0-.56,1.28,1.81,1.81,0,0,0,.56,1.3,1.69,1.69,0,0,0,1.33.48l26.18-1.83L23.49,88.64Z"/><path class="cls-1" d="M69.93,97.12a9.7,9.7,0,0,1-8.63-4.39,1.64,1.64,0,0,1,.64-2.22h0a1.66,1.66,0,0,1,2.22.66,6.52,6.52,0,0,0,5.76,2.7,1.63,1.63,0,0,1,0,3.25Z"/></g></g></svg>