<svg id="Réteg_1" data-name="Réteg 1" xmlns="http://www.w3.org/2000/svg" viewBox="0 0 100 100"><defs><style>.cls-1{fill:#2a2d36;}</style></defs><g id="Réteg_2" data-name="Réteg 2"><g id="Réteg_1-2" data-name="Réteg 1"><path class="cls-1" d="M50,100a50,50,0,1,1,50-50A50.06,50.06,0,0,1,50,100ZM50,4.17A45.83,45.83,0,1,0,95.83,50,45.88,45.88,0,0,0,50,4.17Z"/><path class="cls-1" d="M50,91.67A41.67,41.67,0,1,1,91.67,50,41.71,41.71,0,0,1,50,91.67ZM50,12.5A37.5,37.5,0,1,0,87.5,50,37.54,37.54,0,0,0,50,12.5Z"/><rect class="cls-1" x="47.92" y="2.08" width="4.17" height="95.83"/><rect class="cls-1" x="2.08" y="47.92" width="95.83" height="4.17"/><rect class="cls-1" x="47.92" y="2.09" width="4.17" height="95.81" transform="translate(-20.71 50) rotate(-45)"/><rect class="cls-1" x="2.09" y="47.92" width="95.81" height="4.17" transform="translate(-20.71 50) rotate(-45)"/><path class="cls-1" d="M34.38,69.79a8.34,8.34,0,1,1,8.33-8.33A8.35,8.35,0,0,1,34.38,69.79Zm0-12.5a4.17,4.17,0,1,0,4.16,4.17A4.17,4.17,0,0,0,34.38,57.29Z"/><path class="cls-1" d="M58.33,84.37a5.21,5.21,0,1,1,5.21-5.2A5.2,5.2,0,0,1,58.33,84.37Zm0-6.25a1,1,0,1,0,1.05,1A1,1,0,0,0,58.33,78.12Z"/><path class="cls-1" d="M67.71,69.79A8.34,8.34,0,1,1,76,61.46,8.34,8.34,0,0,1,67.71,69.79Zm0-12.5a4.17,4.17,0,1,0,4.17,4.17A4.17,4.17,0,0,0,67.71,57.29Z"/><circle class="cls-1" cx="61.46" cy="23.96" r="4.17"/><path class="cls-1" d="M83.33,51a5.21,5.21,0,1,1,5.21-5.21A5.2,5.2,0,0,1,83.33,51Zm0-6.25a1,1,0,1,0,1,1A1,1,0,0,0,83.33,44.79Z"/><path class="cls-1" d="M60.42,51a7.29,7.29,0,1,1,7.29-7.29A7.3,7.3,0,0,1,60.42,51Zm0-10.41a3.13,3.13,0,1,0,3.12,3.12A3.13,3.13,0,0,0,60.42,40.63Z"/><circle class="cls-1" cx="42.71" cy="26.04" r="4.17"/><path class="cls-1" d="M20.83,40.63a7.3,7.3,0,1,1,7.3-7.3A7.31,7.31,0,0,1,20.83,40.63Zm0-10.42A3.13,3.13,0,1,0,24,33.33,3.12,3.12,0,0,0,20.83,30.21Z"/><path class="cls-1" d="M16.67,69.79a5.21,5.21,0,1,1,5.21-5.21A5.21,5.21,0,0,1,16.67,69.79Zm0-6.25a1,1,0,1,0,1,1A1,1,0,0,0,16.67,63.54Z"/></g></g></svg>