<?xml version="1.0" encoding="utf-8"?>
<!-- Generator: Adobe Illustrator 24.1.3, SVG Export Plug-In . SVG Version: 6.00 Build 0)  -->
<svg version="1.1" id="Réteg_1" xmlns="http://www.w3.org/2000/svg" xmlns:xlink="http://www.w3.org/1999/xlink" x="0px" y="0px"
	 viewBox="0 0 100 100" style="enable-background:new 0 0 100 100;" xml:space="preserve">
<style type="text/css">
	.st0{fill:#2A2D36;}
</style>
<g id="Réteg_2_1_">
	<g id="Réteg_1-2">
		<path class="st0" d="M50,100C22.4,100,0,77.6,0,50S22.4,0,50,0s50,22.4,50,50C100,77.6,77.6,100,50,100z M50,4.2
			C24.7,4.2,4.2,24.7,4.2,50S24.7,95.8,50,95.8S95.8,75.3,95.8,50c0,0,0,0,0,0C95.8,24.7,75.3,4.2,50,4.2z"/>
		<path class="st0" d="M50,16L50,16c1.2,0,2.1,0.9,2.1,2.1v63.9c0,1.2-0.9,2.1-2.1,2.1h0c-1.2,0-2.1-0.9-2.1-2.1V18.1
			C47.9,16.9,48.9,16,50,16z"/>
		<path class="st0" d="M18.1,47.9h63.9c1.2,0,2.1,0.9,2.1,2.1v0c0,1.2-0.9,2.1-2.1,2.1H18.1c-1.2,0-2.1-0.9-2.1-2.1v0
			C16,48.9,16.9,47.9,18.1,47.9z"/>
	</g>
</g>
</svg>
