<?xml version="1.0" encoding="utf-8"?>
<!-- Generator: Adobe Illustrator 24.1.3, SVG Export Plug-In . SVG Version: 6.00 Build 0)  -->
<svg version="1.1" id="Réteg_1" xmlns="http://www.w3.org/2000/svg" xmlns:xlink="http://www.w3.org/1999/xlink" x="0px" y="0px"
	 viewBox="0 0 100 100" style="enable-background:new 0 0 100 100;" xml:space="preserve">
<style type="text/css">
	.st0{fill:#C4281A;}
</style>
<path class="st0" d="M35.4,100c-5.6,0-10.4-2-14.4-5.9c-4-3.9-6-8.6-6-14c0-2.8,0.7-5.4,2-7.8c1.3-2.4,3.4-4.9,6.3-7.4
	c1.8-1.5,3.4-3.1,4.6-4.8c1.3-1.7,2.7-3.4,4.3-5c-4.4-6.7-7.7-13.7-10-21c-2.3-7.3-3.4-14.4-3.4-21.5c0-4.3,0.5-7.4,1.5-9.5
	C21.2,1,22.8,0,24.9,0c3.2,0,6.5,2,10,6c3.5,4,6.4,8.7,8.9,14.1c1.7,3.8,3.1,7.7,4.1,11.9c1,4.1,1.7,8.3,2.2,12.6
	c0.4-4.3,1.2-8.5,2.2-12.6c1-4.1,2.4-8.1,4.1-11.9C58.6,14.6,61.5,10,65,6c3.5-4,6.9-6,10.1-6c2.1,0,3.6,1,4.7,3.1s1.6,5.2,1.6,9.5
	c0,7.1-1.2,14.3-3.5,21.5c-2.3,7.3-5.7,14.2-10.1,21c1.5,1.7,3,3.4,4.3,5c1.3,1.7,2.8,3.3,4.6,4.8c2.9,2.5,5,5,6.4,7.4
	c1.3,2.4,2,5,2,7.8c0,5.4-2,10.1-6,14c-4,3.9-8.8,5.9-14.5,5.9c-3.7,0-7-0.6-10-1.8L50,96.4l-4.6,1.8C42.4,99.4,39,100,35.4,100z
	 M35.8,94.6c2,0,4.1-0.3,6.3-0.9c2.3-0.6,4.4-1.4,6.4-2.5C47.7,90.8,46.8,90,46,89c-0.8-1-1.2-1.9-1.2-2.6c0-0.7,0.5-1.4,1.5-1.9
	c1-0.5,2.2-0.7,3.6-0.7c1.4,0,2.5,0.3,3.5,0.8c0.9,0.5,1.4,1.1,1.4,1.8c0,0.7-0.4,1.6-1.2,2.6c-0.8,1-1.6,1.7-2.5,2.2
	c2,1.1,4.2,1.9,6.4,2.5c2.3,0.6,4.4,0.9,6.3,0.9c4.3,0,8-1.4,11-4.2c3-2.8,4.5-6.2,4.5-10.2c0-2.1-0.6-4-1.7-5.8
	c-1.1-1.8-2.8-3.6-5.1-5.5c-1.3-1.1-2.3-2-2.9-2.7c-0.7-0.7-1.4-1.7-2.3-2.8c-3.4-4.5-6.1-7.3-8.2-8.5c-2.1-1.2-5.2-1.8-9.3-1.8
	c-4.1,0-7.2,0.6-9.3,1.8c-2.1,1.2-4.9,4-8.3,8.5c-0.9,1.2-1.6,2.1-2.3,2.8c-0.7,0.7-1.6,1.6-2.9,2.7c-2.3,1.9-4,3.7-5.1,5.5
	c-1.1,1.8-1.6,3.7-1.6,5.8c0,4,1.5,7.4,4.5,10.2S31.5,94.6,35.8,94.6z M41.1,75.4c-0.8,0-1.5-0.5-2.1-1.4c-0.6-0.9-0.9-2-0.9-3.2
	c0-1.2,0.3-2.2,0.9-3.2c0.6-0.9,1.3-1.4,2.1-1.4c0.8,0,1.5,0.5,2.1,1.4c0.6,0.9,0.9,2,0.9,3.2s-0.3,2.2-0.9,3.2
	C42.6,74.9,41.9,75.4,41.1,75.4z M58.8,75.4c-0.8,0-1.5-0.5-2.1-1.4c-0.6-0.9-0.9-2-0.9-3.2c0-1.2,0.3-2.2,0.9-3.2
	c0.6-0.9,1.3-1.4,2.1-1.4s1.5,0.5,2.1,1.4s0.9,2,0.9,3.2s-0.3,2.2-0.9,3.2C60.3,74.9,59.6,75.4,58.8,75.4z M36.1,51.1
	c1.3-1,2.6-1.7,4-2.2c1.4-0.5,3-0.9,4.8-1.1c-0.2-4.2-0.9-8.5-1.9-12.9c-1.1-4.4-2.5-8.7-4.3-12.8c-2-4.5-4.3-8.2-6.7-11.1
	c-2.5-2.9-4.8-4.7-7.2-5.5c-0.3,0.9-0.5,1.8-0.6,2.9c-0.1,1.1-0.2,2.3-0.2,3.8c0,6.3,1.1,12.8,3.2,19.6
	C29.3,38.7,32.3,45.1,36.1,51.1z M63.9,51.1c3.8-6,6.7-12.5,8.9-19.3c2.1-6.8,3.2-13.3,3.2-19.6c0-1.4-0.1-2.7-0.2-3.8
	c-0.1-1.1-0.3-2.1-0.6-2.9c-2.4,0.8-4.8,2.6-7.2,5.5s-4.7,6.6-6.7,11.1c-1.8,4.1-3.3,8.3-4.3,12.8c-1.1,4.4-1.7,8.7-1.9,12.9
	c1.7,0.2,3.3,0.5,4.8,1.1C61.2,49.4,62.6,50.2,63.9,51.1z"/>
</svg>
