<?xml version="1.0" encoding="utf-8"?>
<!-- Generator: Adobe Illustrator 24.1.3, SVG Export Plug-In . SVG Version: 6.00 Build 0)  -->
<svg version="1.1" id="Réteg_1" xmlns="http://www.w3.org/2000/svg" xmlns:xlink="http://www.w3.org/1999/xlink" x="0px" y="0px"
	 viewBox="0 0 100 100" style="enable-background:new 0 0 100 100;" xml:space="preserve">
<style type="text/css">
	.st0{fill:#C4281A;}
</style>
<path class="st0" d="M95.8,49c-0.6-0.2-15.9-6-28.7,4.1c-0.8,0.6-1.5,1.2-2.2,1.7c-2.8,2.2-5.3,4.1-7.4,6.3
	c-0.2,0.2-0.5,0.3-0.6,0.6c-0.1,0.1-0.1,0.2-0.2,0.3c-1.4,1.5-2.6,3.2-3.7,5.2V49.3c5.7-0.9,19.5-4.8,24.2-22.6c0,0,0-0.1,0-0.1
	c3.2-15.1-6.3-24.9-6.7-25.3c0,0,0,0,0,0C70.4,1.2,70.2,1.1,70,1c-0.1,0-0.1-0.1-0.2-0.1c-0.1-0.1-0.2-0.1-0.4-0.2
	c0,0-0.1,0-0.1-0.1c-5.2-1.3-15.4-0.8-20.9,9.2c-2.6-3.2-6.9-7.1-12.6-7.1c-4.7,0-9.3,2.5-12.3,6.8c-3.6,5.1-4.4,11.8-2.1,18.4
	c6.5,18.9,20.5,21.5,26.5,21.7v17c-3.9-8.2-9.4-11.1-14.2-13.7c-0.8-0.4-1.6-0.9-2.4-1.3c-10.8-6.3-26.1-2.9-26.8-2.8
	c-0.8,0.2-1.4,0.7-1.7,1.4c-0.3,0.7-0.3,1.5,0,2.2C3.1,53,9.4,65.4,21.9,69.2c9.2,2.8,16.3-0.9,19.7-3.4c3.7,5.5,6.3,14.6,6.3,31.7
	c0,1.4,1.1,2.5,2.5,2.5c1.4,0,2.5-1.1,2.5-2.5c0-17.7,2.2-25.4,6.5-30.9c3.6,2,11.6,5.3,21.4,1.8C93.8,63.8,97.2,52.5,97.3,52
	C97.7,50.7,97,49.4,95.8,49z M23.4,64.4c-6.9-2.1-11.7-7.7-14.2-11.2c4.8-0.5,13.3-0.8,19.6,2.8c0.8,0.5,1.7,0.9,2.6,1.4
	c2.3,1.2,4.7,2.5,7,4.5C35.6,63.8,30.3,66.5,23.4,64.4z M66,5.3c-0.4,2.3-1.4,5.8-4.3,7.4c-3,1.7-6.9,1.3-9.4,0.8
	C55.9,5.6,62.6,5,66,5.3z M50.4,44.6c-0.1,0-0.2,0-0.4,0c-1,0.1-17,1.8-23.9-18.3c-2.4-6.9-0.1-11.7,1.5-13.8c2-2.9,5.2-4.6,8.2-4.6
	c6.4,0,10.8,8.4,10.9,8.5c0,0.1,0.1,0.2,0.2,0.3c0,0,0,0,0,0.1c0.1,0.1,0.2,0.2,0.3,0.3c0,0,0.1,0.1,0.1,0.1
	c0.1,0.1,0.2,0.1,0.3,0.2c0,0,0.1,0,0.1,0.1c0.1,0.1,0.3,0.2,0.4,0.2c0.3,0.1,3.9,1.5,8.3,1.5c2.6,0,5.4-0.5,7.9-1.9
	c3.2-1.8,4.9-4.8,5.9-7.5c1.9,3.6,3.6,9.1,2.1,16C67.3,44.2,51.1,44.5,50.4,44.6z M79.1,63.7c-7,2.5-12.8,0.7-16.1-0.9
	c1.5-1.3,3.1-2.6,5-4c0.7-0.6,1.5-1.1,2.3-1.8C78,50.9,87.2,52,91.5,53C90,56,86.4,61.1,79.1,63.7z"/>
</svg>
