<?xml version="1.0" encoding="utf-8"?>
<!-- Generator: Adobe Illustrator 24.1.3, SVG Export Plug-In . SVG Version: 6.00 Build 0)  -->
<svg version="1.1" id="Réteg_1" xmlns="http://www.w3.org/2000/svg" xmlns:xlink="http://www.w3.org/1999/xlink" x="0px" y="0px"
	 viewBox="0 0 100 100" style="enable-background:new 0 0 100 100;" xml:space="preserve">
<style type="text/css">
	.st0{fill:#C4281A;}
</style>
<g>
	<g id="_x34_9_x2C__Heart_x2C__Love_x2C__Like_x2C__favorite_x2C__report">
		<path class="st0" d="M95.2,17.9c0.5-0.2,1.2-0.2,1.7-0.2c1.2,0,2.2-1,2.2-2.2c0-1.2-1-2.2-2.2-2.2c-3.6,0-6.5-2.9-6.5-6.5
			c0-1.2-1-2.2-2.2-2.2c-1.2,0-2.2,1-2.2,2.2c0,1-0.2,1.9-0.7,2.7c-3.6-1.7-7.5-2.7-11.6-2.7c-12.1,0-18.4,5.8-23.9,15.5
			C44.4,12.6,38.1,6.8,25.9,6.8C11.6,6.8,0,18.4,0,32.7c0,14,7.8,24.4,16.7,33.4c-1.5,0.9-3.4,1.4-5.5,1.4c-1.2,0-2.2,1-2.2,2.2
			c0,1.2,1,2.2,2.2,2.2C17.7,72,23,77.3,23,83.8c0,1.2,1,2.2,2.2,2.2c1.2,0,2.2-1,2.2-2.2c0-2.4,0.9-4.8,2-6.7
			c6.5,6,11.6,11.4,18.9,18.8c0.9,0.9,2.2,0.9,3.1,0C75.4,72,100,58,100,33.1C100,27.6,98.3,22.2,95.2,17.9z M90.4,15.5
			c-0.9,0.7-1.5,1.4-2.2,2.2c-0.7-0.9-1.4-1.5-2.2-2.2c0.9-0.7,1.5-1.4,2.2-2.2C88.9,14.1,89.8,14.8,90.4,15.5z M25.4,75.7
			c-1.4-2.4-3.4-4.4-6-6c2.4-1.4,4.4-3.4,6-6c1.4,2.4,3.4,4.4,6,6C28.8,71.3,26.8,73.3,25.4,75.7z M50.2,91.4
			C43.7,85,38.7,79.7,32.6,74c1.9-1.4,4.1-2,6.7-2c1.2,0,2.2-1,2.2-2.2c0-1.2-1-2.2-2.2-2.2c-6.5,0-11.8-5.3-11.8-11.8
			c0-1.2-1-2.2-2.2-2.2c-1.2,0-2.2,1-2.2,2.2c0,2.9-1.2,5.6-2.9,7.7C11.8,55.1,4.3,45.4,4.3,32.7c0-11.9,9.7-21.7,21.7-21.7
			c10.2,0,15.7,4.3,22,16.7c0.9,1.5,3.1,1.5,3.8,0c6.3-12.5,11.8-16.7,22-16.7c2.9,0,5.6,0.5,8.2,1.5c-0.7,0.3-1.5,0.5-2.4,0.5
			c-1.2,0-2.2,1-2.2,2.2c0,1.2,1,2.2,2.2,2.2c3.6,0,6.5,2.9,6.5,6.5c0,1.2,1,2.2,2.2,2.2c1.2,0,2.2-1,2.2-2.2c0-1.4,0.5-2.7,1.2-3.8
			c2.7,3.8,4.1,8.2,4.1,12.8C95.7,55.3,73.4,68.6,50.2,91.4z"/>
	</g>
	<g id="Layer_1_00000097476469281369909070000005273077739225817003_">
	</g>
</g>
</svg>
