<svg id="Réteg_1" data-name="Réteg 1" xmlns="http://www.w3.org/2000/svg" viewBox="0 0 100 100"><defs><style>.cls-1{fill:#2a2d36;}</style></defs><g id="Réteg_2" data-name="Réteg 2"><g id="Réteg_1-2" data-name="Réteg 1"><path class="cls-1" d="M69.5,95.51H30.55a2.07,2.07,0,0,1-2.07-2.07h0V88.66A56.34,56.34,0,0,1,.24,62.91a2.25,2.25,0,0,1,0-2,2.09,2.09,0,0,1,1.78-1H98a2.09,2.09,0,0,1,1.78,1,2.25,2.25,0,0,1,0,2A56.43,56.43,0,0,1,71.52,88.66v4.78A2.08,2.08,0,0,1,69.5,95.51ZM32.61,91.42H67.43V87.26a2,2,0,0,1,1.31-1.91A52.36,52.36,0,0,0,94.42,64H5.62A52.35,52.35,0,0,0,31.28,85.35a2,2,0,0,1,1.33,1.91Z"/><path class="cls-1" d="M69.5,89.33H30.55a2.07,2.07,0,0,1,0-4.14h39a2.07,2.07,0,0,1,0,4.14Z"/><path class="cls-1" d="M67.07,62.8a2.06,2.06,0,0,1-1.84-1.13h0a18.57,18.57,0,0,0-1.51-2.23,21.6,21.6,0,0,0-2.23-2.73,26.46,26.46,0,0,0-3.13-3.22,65.69,65.69,0,0,0-9.45-6.41,32.12,32.12,0,0,0-13-3,30,30,0,0,0-13.34,3l-1.07.62a43.58,43.58,0,0,0-4.16,2.58l-.26.22c-1.36,1.13-2.65,2.22-3.76,3.18l-1.67,1.82A32.59,32.59,0,0,0,8.51,59.2h0L6.85,61.56a2.07,2.07,0,1,1-3.38-2.38L5.09,57a32.27,32.27,0,0,1,3.65-4.44l1.69-1.85a.54.54,0,0,1,.15-.15c1.2-1.11,2.56-2.23,4-3.38l.29-.18a42.89,42.89,0,0,1,4.65-2.89l1.13-.67h.23A34.32,34.32,0,0,1,36.13,40a36,36,0,0,1,14.71,3.51A67.79,67.79,0,0,1,61.09,50.4,32.89,32.89,0,0,1,64.65,54a24.75,24.75,0,0,1,2.42,3.09,21.6,21.6,0,0,1,1.85,2.71A2.07,2.07,0,0,1,68,62.51,2.26,2.26,0,0,1,67.07,62.8Z"/><path class="cls-1" d="M12.72,62.8a2.07,2.07,0,0,1-2.06-2.08,2.15,2.15,0,0,1,.46-1.28c.55-.68,1.22-1.42,1.93-2.22s1.13-1.2,1.71-1.87a1,1,0,0,1,.18-.17c.82-.74,1.71-1.47,2.64-2.23l1-.84A30.6,30.6,0,0,1,22,49.88l1.38-.82.26-.13A29.07,29.07,0,0,1,36,46.22a32.65,32.65,0,0,1,20.87,8.89,37.8,37.8,0,0,1,3.92,4.18,2,2,0,0,1-.3,2.88h0a2.05,2.05,0,0,1-2.9-.31h0a29.9,29.9,0,0,0-3.49-3.8,28.4,28.4,0,0,0-18.19-7.7A25,25,0,0,0,25.41,52.6l-1.31.78a27.43,27.43,0,0,0-2.91,1.84l-1,.78c-.87.73-1.69,1.4-2.42,2a19.41,19.41,0,0,0-1.69,1.87c-.54.58-1.31,1.42-1.8,2A2,2,0,0,1,12.72,62.8Z"/><path class="cls-1" d="M21.28,62.8a2.08,2.08,0,0,1-1.58-.73A2,2,0,0,1,20,59.19l0,0,1.2-1c.35-.27.71-.53,1.22-1h0a24,24,0,0,1,2.36-1.49l1.33-.82.36-.18a22.26,22.26,0,0,1,9.47-2,25.29,25.29,0,0,1,16.5,6.67,2.07,2.07,0,0,1-2.85,3,20.83,20.83,0,0,0-13.78-5.47,18.11,18.11,0,0,0-7.63,1.69l-1.33.78A16.78,16.78,0,0,0,25,60.58l-1.34,1-1,.83A2,2,0,0,1,21.28,62.8Z"/><path class="cls-1" d="M96.56,62.8a2.08,2.08,0,0,1-1.85-1.13h0a18.42,18.42,0,0,0-1.49-2.23A25.2,25.2,0,0,0,91,56.71a26.7,26.7,0,0,0-3.16-3.22,37.18,37.18,0,0,0-9.38-6.32,32.42,32.42,0,0,0-13-3.07,30.36,30.36,0,0,0-13.45,3,2.08,2.08,0,0,1-2.74-1h0a2.09,2.09,0,0,1,1.07-2.73A34.25,34.25,0,0,1,65.54,40a36.24,36.24,0,0,1,14.72,3.51A40.76,40.76,0,0,1,90.6,50.42,35.25,35.25,0,0,1,94.09,54,31.34,31.34,0,0,1,96.51,57a19.19,19.19,0,0,1,1.82,2.83,2.05,2.05,0,0,1-.86,2.64A2.26,2.26,0,0,1,96.56,62.8Z"/><path class="cls-1" d="M88.93,62.62a2,2,0,0,1-1.62-.77,30.17,30.17,0,0,0-3.54-3.78,28.4,28.4,0,0,0-18.18-7.7,21,21,0,0,0-7.88,1.32,2.07,2.07,0,0,1-1.42-3.89l.09,0a25.41,25.41,0,0,1,9.34-1.53,32.63,32.63,0,0,1,20.87,8.89,38.71,38.71,0,0,1,3.92,4.18,2,2,0,0,1-.3,2.88h0A2,2,0,0,1,88.93,62.62Z"/><path class="cls-1" d="M80.53,62.8a2,2,0,0,1-1.41-.55,20.39,20.39,0,0,0-16.25-5.52,2.07,2.07,0,0,1-.62-4.09h0a24.46,24.46,0,0,1,19.63,6.67,2,2,0,0,1,0,2.89l0,0A2,2,0,0,1,80.53,62.8Z"/><path class="cls-1" d="M32.61,27.21H19a2.07,2.07,0,0,1,0-4.14H32.61A6,6,0,0,0,38,19.74a6.29,6.29,0,0,1,2.47-2.69A6.43,6.43,0,0,1,38,14.38,6,6,0,0,0,32.61,11H19a2.07,2.07,0,0,1,0-4.11H32.61a10.13,10.13,0,0,1,9.08,5.63,2.32,2.32,0,0,0,2.22,1.31l46.46-3.18a6.38,6.38,0,0,1,5.08,10.73q-.14.15-.3.3a6.42,6.42,0,0,1-4.78,1.71L43.86,20.27a2.24,2.24,0,0,0-2.22,1.31A10.11,10.11,0,0,1,32.61,27.21ZM57.47,17.05l33.17,2.22a2.22,2.22,0,0,0,2.4-2v-.18a2.2,2.2,0,0,0-.71-1.65,2.24,2.24,0,0,0-1.69-.6Z"/><path class="cls-1" d="M21.45,16.38H19a2.07,2.07,0,1,1,0-4.13h2.46a2.07,2.07,0,1,1,0,4.13Z"/><path class="cls-1" d="M21.45,21.87H19a2.07,2.07,0,1,1,0-4.13h2.46a2.07,2.07,0,1,1,0,4.13Z"/><path class="cls-1" d="M33.08,44.13a2.07,2.07,0,0,1-2-2.07V6.78a2.07,2.07,0,0,1,4.12-.43,3.08,3.08,0,0,1,0,.43V42.06a2.07,2.07,0,0,1-2.07,2.07Z"/><path class="cls-1" d="M27.28,44.13a2.07,2.07,0,0,1-2.07-2.07h0V6.78a2.07,2.07,0,0,1,4.14,0h0V42.06A2.07,2.07,0,0,1,27.28,44.13Z"/><path class="cls-1" d="M21.45,47.39a2.06,2.06,0,0,1-2.06-2.06h0V6.78a2.07,2.07,0,1,1,4.13,0h0V45.33A2.06,2.06,0,0,1,21.45,47.39Z"/></g></g></svg>