<svg id="Réteg_1" data-name="Réteg 1" xmlns="http://www.w3.org/2000/svg" viewBox="0 0 100 100"><defs><style>.cls-1{fill:#2a2d36;}</style></defs><g id="Réteg_2" data-name="Réteg 2"><g id="Réteg_1-2" data-name="Réteg 1"><path class="cls-1" d="M77,68C68.85,68,60.3,65.15,52,62.35c-14.2-4.73-27.53-9.21-40-1.49a7.61,7.61,0,0,1-8.88-.44A7.84,7.84,0,0,1,.33,51.94l1.91.51L.38,51.92C4.31,38.13,14.94,20.63,43,15.73c32-5.46,52.08,12.74,56.08,27.53,2.82,10.43-1.69,19.22-11.75,23A29.51,29.51,0,0,1,77,68ZM27,52.83c8.75,0,17.56,3,26.22,5.86C64.94,62.59,76,66.3,86,62.59c8.15-3,11.63-9.88,9.35-18.33-2.09-7.35-8.2-14.7-16.5-19.45-7-4-18.74-8.11-35.17-5.24C17.58,24.1,7.75,40.26,4.06,53a4,4,0,0,0,1.45,4.33,3.77,3.77,0,0,0,4.44.22A31.66,31.66,0,0,1,27,52.83Z"/><path class="cls-1" d="M74.18,62c-7.6,0-15.55-2.91-23.2-5.75-12.39-4.55-24.07-8.88-34.84-2.64-1.71,1-5.93,3-8.43,1.06a4.27,4.27,0,0,1-1-5C10.08,38.59,19.32,24.5,44,20.48c25.78-4.22,45.56,8.21,49.09,22.2,2.06,8.13-2,15-10.68,18.07A24.8,24.8,0,0,1,74.18,62ZM28,46.68c8.08,0,16.27,3,24.42,6,10.34,3.82,20.13,7.41,28.86,4.44,6.64-2.42,9.61-7.31,8.06-13.52C86.72,33.29,70.69,20,44.65,24.3c-18.23,3-29.73,11.9-34.21,26.64h0a3.88,3.88,0,0,0-.18.82,8.31,8.31,0,0,0,4-1.53A26.87,26.87,0,0,1,28,46.68ZM8.57,50.23Z"/><path class="cls-1" d="M77,85.26C68.8,85.26,60.3,82.4,52,79.62c-14.2-4.75-27.53-9.21-40-1.49a7.69,7.69,0,0,1-7.73.25A7.93,7.93,0,0,1,0,71.72V54.36a2,2,0,0,1,3.89,0V71.63A4,4,0,0,0,6.13,75,3.81,3.81,0,0,0,10,74.83c14.08-8.68,28.86-3.71,43.29,1.11,11.73,3.93,22.78,7.63,32.8,3.9,6.66-2.44,10.14-7.32,10-13.74V48.87A1.93,1.93,0,0,1,98,46.94h0a2,2,0,0,1,2,1.93V66.06c.17,8-4.45,14.41-12.55,17.43A29.08,29.08,0,0,1,77,85.26Z"/><path class="cls-1" d="M31.35,45.19a10.68,10.68,0,0,1-2.46-.29,7.31,7.31,0,0,1-5.2-4.24A7.36,7.36,0,0,1,24.53,34a12.74,12.74,0,0,1,13.1-5.24A7.35,7.35,0,0,1,42.83,33h0c1.66,4.15-1.25,9.1-6.66,11.25A13.07,13.07,0,0,1,31.35,45.19ZM35,32.47a9,9,0,0,0-3.33.66,8.38,8.38,0,0,0-3.91,3.09,3.55,3.55,0,0,0-.53,3.11,3.59,3.59,0,0,0,2.53,1.91,8.38,8.38,0,0,0,5-.49c3.22-1.29,5.26-4.13,4.44-6.2a3.51,3.51,0,0,0-2.53-2.08A6.43,6.43,0,0,0,35,32.47Z"/></g></g></svg>