<svg id="Réteg_1" data-name="Réteg 1" xmlns="http://www.w3.org/2000/svg" viewBox="0 0 100 100"><defs><style>.cls-1{fill:#2a2d36;}</style></defs><g id="Réteg_2" data-name="Réteg 2"><g id="Réteg_1-2" data-name="Réteg 1"><path class="cls-1" d="M31.7,76.9A18.44,18.44,0,0,1,13.83,56,8.76,8.76,0,0,0,12,49l-.25-.29a1.64,1.64,0,0,1,2.51-2.11l.23.28A11.88,11.88,0,0,1,17,56.53a14.71,14.71,0,0,0,3.47,11.75c5.07,6,13.58,7.11,19,2.53S45.1,57.6,40,51.68a14.67,14.67,0,0,0-11-5.34,12,12,0,0,1-9.09-4.08L19.68,42a1.66,1.66,0,1,1,2.57-2.09l.24.26a8.62,8.62,0,0,0,6.63,2.92,18.08,18.08,0,0,1,13.49,6.49c6.22,7.36,5.79,18-1,23.78A15.23,15.23,0,0,1,31.7,76.9Z"/><path class="cls-1" d="M37.14,70.83a1.64,1.64,0,0,1-1.06-2.89A8.43,8.43,0,0,0,39,61.68a10.5,10.5,0,0,0-2.56-7.19A1.64,1.64,0,0,1,39,52.37a13.82,13.82,0,0,1,3.33,9.44,11.84,11.84,0,0,1-4.09,8.66A1.81,1.81,0,0,1,37.14,70.83Z"/><path class="cls-1" d="M15.51,49.07a1.61,1.61,0,0,1-1.24-.58L7.78,40.94A6.32,6.32,0,0,0,4,38.9,4.71,4.71,0,0,1,.42,36.11a4.57,4.57,0,0,1,.4-4.53,4.71,4.71,0,0,1,3.77-2,4.7,4.7,0,0,1,2.53-3.31,4.54,4.54,0,0,1,4.53.36,4.63,4.63,0,0,1,2.07,3.85,6.36,6.36,0,0,0,1.38,4.17l6.49,7.64a1.65,1.65,0,0,1-2.51,2.13h0l-6.45-7.64a9.37,9.37,0,0,1-2.17-6.3,1.47,1.47,0,0,0-.66-1.17,1.35,1.35,0,0,0-1.29-.09A1.37,1.37,0,0,0,7.76,31a.36.36,0,0,0,0,.09,1.64,1.64,0,0,1-.9,2.14,1.61,1.61,0,0,1-1.48-.12,1.4,1.4,0,0,0-1.89.42,1.38,1.38,0,0,0,1,2.11,9.62,9.62,0,0,1,5.83,3.17l6.47,7.64a1.64,1.64,0,0,1-.17,2.29h0A1.62,1.62,0,0,1,15.51,49.07Z"/><path class="cls-1" d="M48.72,34.83a1.71,1.71,0,0,1-1-.36,14.29,14.29,0,0,0-6.19-2.89,11.89,11.89,0,0,1-8.22-5.66l-.19-.3a1.63,1.63,0,0,1,.58-2.24,1.62,1.62,0,0,1,2.17.64l.19.32a8.65,8.65,0,0,0,6,4A17.32,17.32,0,0,1,49.7,31.9,1.63,1.63,0,0,1,50,34.17a.1.1,0,0,1,0,0A1.64,1.64,0,0,1,48.72,34.83Z"/><path class="cls-1" d="M25.49,45.81a1.64,1.64,0,0,1-1.64-1.62,17,17,0,0,1,.93-5.66,8.75,8.75,0,0,0-.57-7.21L24,31a1.64,1.64,0,0,1,2.83-1.66l.19.32a11.93,11.93,0,0,1,.83,9.92,13.61,13.61,0,0,0-.73,4.64,1.63,1.63,0,0,1-1.61,1.65h0Z"/><path class="cls-1" d="M27.93,31.94a1.66,1.66,0,0,1-1.42-.81l-5-8.66A6.41,6.41,0,0,0,18,19.77a4.66,4.66,0,0,1-2.85-5.94,4.61,4.61,0,0,1,1-1.6,4.69,4.69,0,0,1,4-1.38A4.68,4.68,0,0,1,23.34,8a4.65,4.65,0,0,1,5.78,5.32,6.37,6.37,0,0,0,.66,4.32l5,8.64a1.64,1.64,0,0,1-.53,2.26l-.07,0a1.61,1.61,0,0,1-2.15-.64L27,19.28a9.56,9.56,0,0,1-1.06-6.56,1.39,1.39,0,0,0-1.68-1.59,1.41,1.41,0,0,0-1,1.66,1.67,1.67,0,0,1-.77,1.78,1.63,1.63,0,0,1-1.89-.21,1.37,1.37,0,0,0-1.88,0,1.27,1.27,0,0,0-.34,1.24,1.34,1.34,0,0,0,.88,1,9.64,9.64,0,0,1,5.21,4.16l5,8.64A1.65,1.65,0,0,1,28,31.85Z"/><path class="cls-1" d="M52,84.86c-15.79,0-26.64-2.79-32.26-8.28a14.76,14.76,0,0,1-4.51-10.94,1.64,1.64,0,0,1,3.28,0h0a11.32,11.32,0,0,0,3.53,8.58c5.25,5.15,16.66,7.68,33,7.32C78.45,81,84.59,78,84.91,66.81c.32-10.83-2.17-19-7.36-24.4C72.87,37.6,66,35.17,57,35.17A44.3,44.3,0,0,0,27.89,45.55a1.65,1.65,0,0,1-2.32-.13h0a1.66,1.66,0,0,1,.15-2.32A47.56,47.56,0,0,1,57,31.9c9.89,0,17.59,2.76,22.89,8.23,5.85,6,8.64,15.09,8.3,26.77C87.77,81.64,77.64,84.34,55.1,84.83Z"/><path class="cls-1" d="M53.79,92.18c-22.39,0-46.24-4.94-46.24-14.13,0-3.94,6.93-7.54,9.06-8.62a1.63,1.63,0,0,1,2.17.74l0,0A1.66,1.66,0,0,1,18,72.39c-4.62,2.23-7.19,4.76-7.19,5.66,0,4.53,16.34,10.87,42.93,10.87s42.92-6.34,42.92-10.87c0-1.79-2.79-4.53-10.64-6.92a1.62,1.62,0,0,1-1.15-2l0,0A1.64,1.64,0,0,1,87,68h0c8.55,2.58,13,6,13,10C100,87.24,76.19,92.18,53.79,92.18Z"/><path class="cls-1" d="M72.45,46.36h-.32l-.3-.12-.28-.13-.25-.21a1.64,1.64,0,0,1-.49-1.17,1.91,1.91,0,0,1,.13-.62,2.54,2.54,0,0,1,.16-.28,1.16,1.16,0,0,1,.2-.25,1.69,1.69,0,0,1,2.29.08,1.64,1.64,0,0,1,.47,1.15A1.7,1.7,0,0,1,73.59,46,1.73,1.73,0,0,1,72.45,46.36Z"/><path class="cls-1" d="M73.74,53a2,2,0,0,1-.64-.11,1.66,1.66,0,0,1-.53-.38,1.57,1.57,0,0,1-.47-1.15,1.71,1.71,0,0,1,0-.32,1,1,0,0,1,.11-.3.76.76,0,0,1,.13-.29,1.71,1.71,0,0,1,.21-.26A1.64,1.64,0,0,1,74,49.71l.32.1.28.15.25.19.21.26a1.59,1.59,0,0,1,.15.29,1.5,1.5,0,0,1,0,.3,1.71,1.71,0,0,1,0,.32,1.65,1.65,0,0,1-.47,1.15A1.59,1.59,0,0,1,73.74,53Z"/><path class="cls-1" d="M78.3,50.68A1.65,1.65,0,0,1,76.66,49a.91.91,0,0,1,0-.33,1.31,1.31,0,0,1,.1-.32.91.91,0,0,1,.13-.26l.21-.25a.86.86,0,0,1,.26-.2l.26-.15a1.19,1.19,0,0,1,.32-.1,1.62,1.62,0,0,1,1.48.45,1.57,1.57,0,0,1,.2.25,1,1,0,0,1,.15.26,2.33,2.33,0,0,1,.1.32,1.82,1.82,0,0,1,0,.33,1.68,1.68,0,0,1-1.64,1.64Z"/><path class="cls-1" d="M70.17,66.17a1.69,1.69,0,0,1-.62-.14,1.2,1.2,0,0,1-.53-.35,1.57,1.57,0,0,1-.49-1.15,1.82,1.82,0,0,1,0-.33,1.5,1.5,0,0,1,0-.3,1.08,1.08,0,0,1,.15-.28,1.33,1.33,0,0,1,.21-.26l.24-.21a1.08,1.08,0,0,1,.29-.13l.3-.1a1.65,1.65,0,0,1,1.49.44,1.24,1.24,0,0,1,.19.26.76.76,0,0,1,.15.28l.11.3v.33A1.64,1.64,0,0,1,70,66.17Z"/><path class="cls-1" d="M59.76,55.51A1.58,1.58,0,0,1,58.61,55a2.07,2.07,0,0,1-.36-.53,1.68,1.68,0,0,1-.13-.62,1.93,1.93,0,0,1,0-.34,1.58,1.58,0,0,1,.09-.31,1.91,1.91,0,0,1,.15-.28l.21-.24.24-.21.29-.15.3-.1a1.83,1.83,0,0,1,.66,0l.3.1.26.15.27.21.21.24.15.28v.31a1,1,0,0,1,0,.34,1.9,1.9,0,0,1-.12.62,2.32,2.32,0,0,1-.35.53A1.67,1.67,0,0,1,59.76,55.51Z"/><path class="cls-1" d="M68,54.49a1.47,1.47,0,0,1-.62-.13,1.87,1.87,0,0,1-.55-.36,2.07,2.07,0,0,1-.36-.53,1.88,1.88,0,0,1-.11-.62,1.71,1.71,0,0,1,0-.32,1.71,1.71,0,0,1,0-.32,1.17,1.17,0,0,1,.15-.27l.19-.26.24-.21.31-.13a.76.76,0,0,1,.3-.1,1.61,1.61,0,0,1,1.47.44,1.71,1.71,0,0,1,.21.26,1.17,1.17,0,0,1,.15.27,1.71,1.71,0,0,1,0,.32,1.71,1.71,0,0,1,0,.32,1.91,1.91,0,0,1-.13.62,1.77,1.77,0,0,1-.36.53A1.64,1.64,0,0,1,68,54.49Z"/><path class="cls-1" d="M78.42,64.9a1.91,1.91,0,0,1-.63-.13,1.65,1.65,0,0,1-1-1.51,1.71,1.71,0,0,1,0-.32,1.75,1.75,0,0,1,.12-.32.91.91,0,0,1,.13-.26,1.39,1.39,0,0,1,.21-.27,1.72,1.72,0,0,1,2.32,0,1.05,1.05,0,0,1,.2.27,1,1,0,0,1,.16.26,1.68,1.68,0,0,1,.09.32,1.71,1.71,0,0,1,0,.32,1.55,1.55,0,0,1-.47,1.15A1.67,1.67,0,0,1,78.42,64.9Z"/><path class="cls-1" d="M56.61,43.32h-.32l-.31-.1-.28-.15a1.16,1.16,0,0,1-.24-.2,1.58,1.58,0,0,1-.5-1.15,1.71,1.71,0,0,1,.5-1.17,1.59,1.59,0,0,1,1.47-.44h.3l.28.15.27.21a1.68,1.68,0,0,1,.47,1.17,1.64,1.64,0,0,1-1.64,1.64h0Z"/><path class="cls-1" d="M63.7,46.87a1.31,1.31,0,0,1-.62-.14,1.42,1.42,0,0,1-.89-.88,1.37,1.37,0,0,1-.13-.63,1.71,1.71,0,0,1,0-.32,1,1,0,0,1,.21-.3,1.08,1.08,0,0,1,.15-.28,2.35,2.35,0,0,1,.19-.25l.26-.2.28-.15.3-.1a1.78,1.78,0,0,1,.65,0l.3.1.28.15a1,1,0,0,1,.25.2,1.16,1.16,0,0,1,.2.25.85.85,0,0,1,.15.28.76.76,0,0,1,0,.3,1.71,1.71,0,0,1,0,.32,1.5,1.5,0,0,1-.11.63,1.71,1.71,0,0,1-.38.54l-.24.19a.76.76,0,0,1-.28.15l-.31.1Z"/><path class="cls-1" d="M64.15,39.62a1.88,1.88,0,0,1-.62-.11,2.17,2.17,0,0,1-.55-.36l-.19-.25a1.25,1.25,0,0,1-.15-.28V38a1.93,1.93,0,0,1,0-.34v-.3a1.59,1.59,0,0,1,.15-.29l.19-.24.27-.21a.94.94,0,0,1,.28-.15h.3a1.72,1.72,0,0,1,.64,0h.31l.28.15.24.21.21.24a1.59,1.59,0,0,1,.15.29,2.64,2.64,0,0,1,.1.3,1.93,1.93,0,0,1,0,.34v.32c0,.1-.06.2-.1.3a1.51,1.51,0,0,1-.15.28l-.21.25a1.21,1.21,0,0,1-.24.21l-.28.15-.31.09Z"/><path class="cls-1" d="M41.74,44.21a1.7,1.7,0,0,1-1.15-.49.82.82,0,0,1-.21-.25,2.61,2.61,0,0,1-.17-.28,1.6,1.6,0,0,1,0-.31.86.86,0,0,1,0-.32,1.66,1.66,0,0,1,.49-1.17,1.69,1.69,0,0,1,2.3,0,1.62,1.62,0,0,1,.49,1.17,1.71,1.71,0,0,1,0,.32,1.6,1.6,0,0,1,0,.31,1.91,1.91,0,0,1-.15.28,1.64,1.64,0,0,1-.21.25A1.66,1.66,0,0,1,41.74,44.21Z"/><path class="cls-1" d="M20.53,60.45A1.57,1.57,0,0,1,19.38,60a1,1,0,0,1-.21-.25,1.25,1.25,0,0,1-.15-.28,1.4,1.4,0,0,1-.15-.3,1.64,1.64,0,1,1,3.25-.32,1.71,1.71,0,0,1,0,.32,1.18,1.18,0,0,1-.1.3,1.25,1.25,0,0,1-.15.28.92.92,0,0,1-.19.25A1.64,1.64,0,0,1,20.53,60.45Z"/><path class="cls-1" d="M24.72,69a1.91,1.91,0,0,1-.62-.13,1.32,1.32,0,0,1-.53-.36,1.57,1.57,0,0,1-.49-1.15,1.6,1.6,0,0,1,.49-1.15,1.68,1.68,0,0,1,2.32,0,1.64,1.64,0,0,1,0,2.3,1.46,1.46,0,0,1-.55.36A1.64,1.64,0,0,1,24.72,69Z"/><path class="cls-1" d="M28.53,61.47a1.67,1.67,0,0,1-1.64-1.64,1.7,1.7,0,0,1,.49-1.17l.25-.19.28-.15.3-.1a1.62,1.62,0,0,1,2,1.61A1.57,1.57,0,0,1,29.7,61l-.26.21a1.59,1.59,0,0,1-.29.15l-.3.09Z"/><path class="cls-1" d="M50,40a2.21,2.21,0,0,1-.62-.13,1.61,1.61,0,0,1-.53-.36,1.67,1.67,0,0,1-.49-1.15,1.75,1.75,0,0,1,.49-1.17l.25-.19a1.61,1.61,0,0,1,.28-.17h.3a1.66,1.66,0,0,1,1.49.43,1.78,1.78,0,0,1,.48,1.17,1.6,1.6,0,0,1-.48,1.15A1.72,1.72,0,0,1,50,40Z"/><path class="cls-1" d="M48,50.54a1.59,1.59,0,0,1-1.16-.47l-.21-.24a2.1,2.1,0,0,1-.15-.3,1.12,1.12,0,0,1-.1-.31,1.71,1.71,0,0,1,0-.32,1.65,1.65,0,0,1,.47-1.15l.25-.21.3-.15.3-.09a1.62,1.62,0,0,1,1.87,1.34,2.11,2.11,0,0,1,0,.26,1.71,1.71,0,0,1,0,.32,1.58,1.58,0,0,1-.09.31,1.46,1.46,0,0,1-.16.3l-.24.24A1.6,1.6,0,0,1,48,50.54Z"/></g></g></svg>