<svg id="Réteg_1" data-name="Réteg 1" xmlns="http://www.w3.org/2000/svg" viewBox="0 0 100 100"><defs><style>.cls-1{fill:#2a2d36;}</style></defs><g id="Réteg_2" data-name="Réteg 2"><g id="Réteg_1-2" data-name="Réteg 1"><path class="cls-1" d="M47.44,88.71A43.57,43.57,0,0,1,3.92,45.19,1.78,1.78,0,0,1,5.7,43.41H89.19A1.78,1.78,0,0,1,91,45.19,43.57,43.57,0,0,1,47.44,88.71ZM7.52,47a40,40,0,0,0,79.85,0Z"/><path class="cls-1" d="M9.72,46.92a1.79,1.79,0,0,1-.79-.18,1.8,1.8,0,0,1-.76-2.23,14.48,14.48,0,0,0-2-1.53C3.7,41.33,0,38.9,0,34.18s1.55-6.5,3.78-8A8.53,8.53,0,0,0,6.49,23.6a5.16,5.16,0,0,0,0-3.25c-.2-2.29-.73-5.92,3.5-7.31,5.06-1.7,7,2.92,8.39,5.94a10.9,10.9,0,0,0,2,3.56,6.53,6.53,0,0,0,6.36.89c3.32-.69,7.47-1.57,11.86,5.31a1.81,1.81,0,0,1-.55,2.46,1.78,1.78,0,0,1-2.45-.54c-3.06-4.82-5.07-4.39-8.17-3.73a10,10,0,0,1-9.29-1.6,12.15,12.15,0,0,1-3.11-4.94c-1.65-3.8-2.35-4.49-4-4-1.16.39-1.35.65-1,3.31a8.16,8.16,0,0,1-.61,5.68,12.25,12.25,0,0,1-3.66,3.65c-1.53,1.08-2.29,1.64-2.29,5.09,0,2.57,1.9,4.08,4.56,5.9,1.94,1.33,4.61,3.17,3.2,5.9A1.75,1.75,0,0,1,9.72,46.92Z"/><path class="cls-1" d="M23.32,46.17a1.81,1.81,0,0,1-1.41-.68c-.36-.47-9.08-11.68-10.08-24.81a1.78,1.78,0,0,1,3.55-.29c1,12,9.25,22.79,9.33,22.9a1.75,1.75,0,0,1-.18,2.47l0,0A1.71,1.71,0,0,1,23.32,46.17Z"/><path class="cls-1" d="M27.8,46.92h-.23A1.78,1.78,0,0,1,26,45s0-.05,0-.07A51.85,51.85,0,0,1,29.9,29a1.79,1.79,0,1,1,3.19,1.61h0a49.7,49.7,0,0,0-3.54,14.75A1.75,1.75,0,0,1,27.8,46.92Z"/><path class="cls-1" d="M16.5,46.92A1.79,1.79,0,0,1,15,46.06s-4.78-7.65-9.88-9.51A1.78,1.78,0,0,1,6,33.11a1.45,1.45,0,0,1,.29.11c6.31,2.26,11.5,10.64,11.7,11a1.77,1.77,0,0,1-.6,2.44A1.8,1.8,0,0,1,16.5,46.92Z"/><path class="cls-1" d="M73.52,47a1.48,1.48,0,0,1-.42,0,1.79,1.79,0,0,1-1.31-2.14c3.45-14,11.8-16.34,15.23-16.77A12.27,12.27,0,0,1,99.28,34.2a5.14,5.14,0,0,1,.35,4.55c-1,2.21-3.78,2.84-6.42,3.45-3.14.72-4.55,1.23-4.55,2.29a1.78,1.78,0,1,1-3.56,0c0-4.08,4.23-5,7.32-5.76,1.47-.35,3.69-.86,4.08-1.51a3.4,3.4,0,0,0-.35-1.45,8.63,8.63,0,0,0-8.68-4.08c-5.67.59-10.21,5.73-12.25,14.07A1.76,1.76,0,0,1,73.52,47Z"/><path class="cls-1" d="M44.11,47a1.78,1.78,0,0,1-1.74-1.84,1.72,1.72,0,0,1,.19-.77l8-15.13a12.25,12.25,0,0,0-15.32,5.33A11.57,11.57,0,0,0,34.72,44a1.78,1.78,0,0,1-3.35,1.23h0a15.12,15.12,0,0,1,.8-12.36,16,16,0,0,1,21.75-6.13,1.77,1.77,0,0,1,.76,2.37l0,0-9,16.89A1.73,1.73,0,0,1,44.11,47Z"/><path class="cls-1" d="M44.67,39.94a1.78,1.78,0,0,1-1.78-1.58L42,30.58a1.78,1.78,0,1,1,3.53-.43h0L46.42,38a1.75,1.75,0,0,1-1.49,2Z"/><path class="cls-1" d="M41.58,42.37a1.77,1.77,0,0,1-.84-.21l-6-3.16A1.8,1.8,0,0,1,34,36.59a1.76,1.76,0,0,1,2.36-.79l.1.05,6,3.17a1.77,1.77,0,0,1,.74,2.4h0A1.7,1.7,0,0,1,41.58,42.37Z"/><path class="cls-1" d="M68.38,46.17h-.23a1.79,1.79,0,0,1-1.56-2s0-.05,0-.08C70.11,16.29,94,11.34,94.15,11.34a1.78,1.78,0,0,1,.72,3.48l-.06,0C94,15,73.3,19.33,70.13,44.57A1.78,1.78,0,0,1,68.38,46.17Z"/><path class="cls-1" d="M73.85,46.17h-.22a1.76,1.76,0,0,1-1.55-2s0-.06,0-.1c3.48-27.75,21.2-32.53,22-32.78a1.77,1.77,0,0,1,2.13,1.28s0,.05,0,.07a1.74,1.74,0,0,1-1.28,2c-.66.19-16.12,4.52-19.3,29.78A1.77,1.77,0,0,1,73.85,46.17Z"/><path class="cls-1" d="M62.15,47a1.78,1.78,0,0,1-1.76-1.51,35.61,35.61,0,0,1,8.17-29,1.78,1.78,0,0,1,2.78,2.22,1.67,1.67,0,0,1-.23.23,32.73,32.73,0,0,0-7.27,26,1.77,1.77,0,0,1-1.46,2h0Z"/><path class="cls-1" d="M67,47a1.78,1.78,0,0,1-1.7-1.24C59.62,27.38,68.17,17,68.54,16.61a1.78,1.78,0,0,1,2.72,2.31h0c-.31.37-7.64,9.38-2.62,25.8a1.77,1.77,0,0,1-1.19,2.21h0A1.74,1.74,0,0,1,67,47Z"/><path class="cls-1" d="M48.49,28.64a1.77,1.77,0,0,1-1.78-1.77h0a10.43,10.43,0,0,1,20-4.27,1.77,1.77,0,1,1-3.24,1.45,6.89,6.89,0,0,0-13.18,2.82,1.77,1.77,0,0,1-1.77,1.77Z"/><path class="cls-1" d="M57.19,37.3A10.49,10.49,0,0,1,49.51,34a1.81,1.81,0,0,1,2.61-2.51,6.82,6.82,0,0,0,5.07,2.37,7,7,0,0,0,3.57-1,1.78,1.78,0,0,1,1.84,3A10.22,10.22,0,0,1,57.19,37.3Z"/><path class="cls-1" d="M56.21,46.92a1.72,1.72,0,0,1-1.07-.35L46.4,40.12a1.78,1.78,0,0,1-.61-2,1.77,1.77,0,0,1,1.82-1.15l14.17,1.21a1.78,1.78,0,1,1-.08,3.55l-.23,0L53.57,41l3.62,2.72a1.79,1.79,0,0,1,.36,2.49A1.73,1.73,0,0,1,56.21,46.92Z"/><path class="cls-1" d="M40.72,29.38A1.77,1.77,0,0,1,39,27.68V22.5L36,21.21l-2.27,4.66a1.77,1.77,0,0,1-3.42-.95,1.74,1.74,0,0,1,.3-.61l3-6.12A1.78,1.78,0,0,1,36,17.33l5.55,2.43a1.8,1.8,0,0,1,1.06,1.63v6.29A1.77,1.77,0,0,1,40.72,29.38Z"/><path class="cls-1" d="M49,25.8a1.75,1.75,0,0,1-.56,0L40.3,23.11a1.78,1.78,0,0,1,.87-3.45l.23.08,8.17,2.69a1.79,1.79,0,0,1,1.15,2.24h0A1.78,1.78,0,0,1,49,25.8Z"/><path class="cls-1" d="M65.07,34.52a1.69,1.69,0,0,1-1.1-.38,1.76,1.76,0,0,1-.33-2.47l0,0L67,27.42a1.82,1.82,0,0,1,1.39-.7,1.72,1.72,0,0,1,1.39.66l3.22,4a1.78,1.78,0,1,1-2.75,2.25L68.4,31.36l-2,2.47A1.74,1.74,0,0,1,65.07,34.52Z"/><path class="cls-1" d="M51.06,22.19a1.78,1.78,0,0,1-1.78-1.78h0a3.49,3.49,0,1,0-7,0,1.78,1.78,0,1,1-3.56,0h0a7,7,0,0,1,14.1,0h0A1.78,1.78,0,0,1,51.06,22.19Z"/><path class="cls-1" d="M23.65,27.42A1.81,1.81,0,0,1,22,26.25a7,7,0,0,1,13.21-4.92,1.79,1.79,0,1,1-3.35,1.25A3.47,3.47,0,1,0,25.33,25a1.79,1.79,0,0,1-1.07,2.28A1.59,1.59,0,0,1,23.65,27.42Z"/><path class="cls-1" d="M84.17,66.06H10.33a1.78,1.78,0,0,1,0-3.55H84.17a1.78,1.78,0,0,1,0,3.55Z"/></g></g></svg>