<svg id="Réteg_1" data-name="Réteg 1" xmlns="http://www.w3.org/2000/svg" viewBox="0 0 100 100"><defs><style>.cls-1{fill:#2a2d36;}</style></defs><g id="Réteg_2" data-name="Réteg 2"><g id="Réteg_1-2" data-name="Réteg 1"><path class="cls-1" d="M80.22,92.83c-5.58,0-22.57-1.5-43.58-17.67A115.31,115.31,0,0,1,1.71,30.52l-.08-.21c-.14-.4-3.2-9.95.6-17.13a13.46,13.46,0,0,1,8.6-6.7C22.7,3.07,30.09,11.8,32.45,17.08,33.84,19.13,48,39.62,60.13,46.59A77.37,77.37,0,0,0,80,54.38,57.71,57.71,0,0,1,90.44,58c9,4.49,10.86,15.36,8.81,23.55-2.25,9-16.51,11.14-17.12,11.22A17.58,17.58,0,0,1,80.22,92.83ZM6,28.78A110.53,110.53,0,0,0,39.44,71.53c23.61,18.17,42,16.69,42.15,16.68,3.17-.47,12-2.8,13.21-7.79,1.62-6.48.31-15-6.41-18.34a53.5,53.5,0,0,0-9.62-3.28,82.34,82.34,0,0,1-20.93-8.24c-13.62-7.83-28.68-30.15-29.31-31.1l-.2-.37c-.21-.46-5.12-11.4-16.24-8.21a9,9,0,0,0-5.81,4.45C3.91,19.8,5.21,26.45,6,28.78Z"/><path class="cls-1" d="M76.1,85.17c-.57,0-14.27-.2-37.53-17.6A94.07,94.07,0,0,1,7.38,26.63,2.29,2.29,0,1,1,11.64,25,89.53,89.53,0,0,0,41.32,63.9C63.16,80.24,76,80.59,76.12,80.59a2.29,2.29,0,0,1,0,4.58Z"/><circle class="cls-1" cx="23.79" cy="22.93" r="2.86"/><circle class="cls-1" cx="25.69" cy="36.27" r="2.86"/><circle class="cls-1" cx="40.9" cy="41.97" r="2.86"/><circle class="cls-1" cx="37.1" cy="51.48" r="2.86"/><circle class="cls-1" cx="54.22" cy="55.29" r="2.86"/><circle class="cls-1" cx="58.02" cy="68.6" r="2.86"/><circle class="cls-1" cx="67.53" cy="59.09" r="2.86"/><circle class="cls-1" cx="77.04" cy="74.31" r="2.86"/><circle class="cls-1" cx="86.55" cy="66.7" r="2.86"/><circle class="cls-1" cx="78.94" cy="55.29" r="2.86"/><circle class="cls-1" cx="58.02" cy="45.78" r="2.86"/><circle class="cls-1" cx="44.71" cy="32.46" r="2.86"/><circle class="cls-1" cx="33.3" cy="19.13" r="2.86"/><circle class="cls-1" cx="2.86" cy="30.56" r="2.86"/><circle class="cls-1" cx="14.28" cy="51.48" r="2.86"/><circle class="cls-1" cx="29.49" cy="68.6" r="2.86"/><circle class="cls-1" cx="48.51" cy="81.92" r="2.86"/><circle class="cls-1" cx="73.24" cy="91.43" r="2.86"/></g></g></svg>