<svg id="Réteg_1" data-name="Réteg 1" xmlns="http://www.w3.org/2000/svg" viewBox="0 0 100 100"><defs><style>.cls-1{fill:#2a2d36;}</style></defs><path class="cls-1" d="M92.48,48.45C95.4,33.25,85.3,22.4,74,19.63,71.16,6.07,59.93,0,49.87,0h-.06c-10.07,0-21.31,6.14-24,19.73C14.3,22.7,4.55,34.18,7.47,48.79,3.1,52,3.28,56.29,5,59.29,6.84,62.63,11.07,65.17,15,64,18.31,76,24,95.22,27,97.18c2.5,1.59,18.5,2.82,30.6,2.82,4.92,0,11.59-.2,15.46-1.16,2.12-.52,3.33-1.21,3.92-2.23C79.06,93,82.92,75,85.18,63.79c4,1,8.11-1.59,9.92-4.93C96.73,55.86,96.84,51.61,92.48,48.45ZM12,49.61l0-.4a21.09,21.09,0,0,1,2.83-17.45,20.42,20.42,0,0,1,14.69-8.71A20.43,20.43,0,0,1,46.7,30.24,22.56,22.56,0,0,1,51,47.44l-.05.27c-.08.44-.16.89-.27,1.34a2.15,2.15,0,0,0,.9,2.34A5.94,5.94,0,0,1,53.74,57a2.87,2.87,0,0,1-2,2.28c-1.61.45-3.79-.57-6-2.81a2,2,0,0,0-.27-.33,2.16,2.16,0,0,0-1.7-.68,2.05,2.05,0,0,0-1.58.82,1.8,1.8,0,0,0-.29.46c-1.11,2.07-2.31,3.18-3.54,3.29-1.45.14-3.2-1.08-5.14-3.49a2.16,2.16,0,0,0-2-1.29h0a2.16,2.16,0,0,0-2,1.32c-1.7,2.44-3.24,3.63-4.64,3.62s-2.64-1.2-4.14-3.57a2.06,2.06,0,0,0-1.86-1.07h0a2,2,0,0,0-1.84,1.06,4.93,4.93,0,0,1-4.62,2.51,3.57,3.57,0,0,1-3-2.26c-.57-1.58.08-3.47,1.83-5.33a2,2,0,0,0,.9-1.92Zm76,.16a2,2,0,0,0,.92,1.46c2.63,2.54,2.78,5.15,1.8,6.52s-2.83,1.45-4.94.39a1,1,0,0,0-.5-.23l-.22-.18a13.37,13.37,0,0,1-2-1.49,2.07,2.07,0,0,0-1.78-.94h0a2,2,0,0,0-1.85,1.1c-1.14,2.19-2.36,3.36-3.63,3.48-1.42.14-3.21-1.07-5.16-3.49a2.16,2.16,0,0,0-2-1.29h0a2.14,2.14,0,0,0-1.82,1.06c-6.12,2.91-7.63,2.37-7.95,2.13s-.25-.9-.18-1.35l0-.24a7.33,7.33,0,0,0-.22-3.32A7.94,7.94,0,0,0,57,50.2a6.68,6.68,0,0,0-.91-1c-.83-1.14-.68-2.39-.47-4.11.07-.63.15-1.28.18-2A22.37,22.37,0,0,0,53.3,32.34a4.68,4.68,0,0,1,.13-2.53,20.39,20.39,0,0,1,14.93-6.94h0A22.68,22.68,0,0,1,77.87,25C87.34,29.37,90.16,40.34,88,48.89a1.45,1.45,0,0,0,0,.31c0,.12,0,.23,0,.31v.16ZM66.79,18.66a1.73,1.73,0,0,0,1-.63A1.62,1.62,0,0,0,68,16.38a20.85,20.85,0,0,0-7.16-9,19.36,19.36,0,0,1,8.43,11.24C68.44,18.57,67.61,18.6,66.79,18.66ZM51.17,7.1Zm-.05-2.63a1.82,1.82,0,0,0-1.72,2,1.73,1.73,0,0,0,1.83,1.65c6.41-.37,11.32,4.49,13.37,9.48a1.86,1.86,0,0,0,1.48,1.14h.21a25.36,25.36,0,0,0-2.77.44A1.82,1.82,0,0,0,63.91,17,13.62,13.62,0,0,0,52.67,9.32h0A1.71,1.71,0,0,0,50.85,11a1.82,1.82,0,0,0,1.74,1.92,10,10,0,0,1,8.13,5.79,1.71,1.71,0,0,0,1,.88,24.94,24.94,0,0,0-10.41,6.24l-.13.14c-.44.43-.87.9-1.28,1.37a25.16,25.16,0,0,0-8.69-6.44l-.67-.28-.69-.28a24.35,24.35,0,0,0-8.83-1.62h-.62C33.53,8.11,42.69,4.27,49.8,4.24h.08A21.26,21.26,0,0,1,53,4.49,14.86,14.86,0,0,0,51.12,4.47ZM35.78,64.93ZM18.85,61.66a8.42,8.42,0,0,0,5.28,2.53A1.8,1.8,0,0,0,24,65.34h0l5.45,27.73a1.66,1.66,0,0,0,1.09,1.3,1.88,1.88,0,0,0,.57.09A2,2,0,0,0,32.35,94a1.79,1.79,0,0,0,.58-1.72L27.48,64.52a1.59,1.59,0,0,0-.27-.64,8.92,8.92,0,0,0,4.11-2.63,9.13,9.13,0,0,0,3.88,2.52A1.75,1.75,0,0,0,34.8,65l1,27.73a1.79,1.79,0,0,0,1.83,1.74h.07a1.72,1.72,0,0,0,1.71-1.81l-1-27.73a1.85,1.85,0,0,0-.17-.71,8.3,8.3,0,0,0,5.4-2.44c.19.19.4.38.61.56a8.32,8.32,0,0,0,1.65,1.1A1.77,1.77,0,0,0,45,64.9L44.2,92.63a1.73,1.73,0,0,0,1.73,1.8H46a1.79,1.79,0,0,0,1.83-1.74L48.65,65a1.73,1.73,0,0,0-.11-.69,6.3,6.3,0,0,0,1.56,0A2.06,2.06,0,0,0,51,64a8.7,8.7,0,0,0,5.13-2.34,7.91,7.91,0,0,0,2.2,1.51,1.81,1.81,0,0,0-1.41,1.64L54.62,94.4a1.69,1.69,0,0,0,1.59,1.84h.15a1.84,1.84,0,0,0,1.87-1.7L60.54,65a1.61,1.61,0,0,0-.19-.93c3.43,1.19,6.45-.56,8.42-2.91A8.79,8.79,0,0,0,75.2,64h0a8.33,8.33,0,0,0,6.08-2.71,8.73,8.73,0,0,0,.86.86c-3.64,18.08-6.62,30.28-8,32.75a5.1,5.1,0,0,1-1.87.72c-10.41,2.57-41.38.06-43.5-1.24C27.35,93.28,22.46,78.8,18,62.64A4.64,4.64,0,0,0,18.85,61.66Z"/><path class="cls-1" d="M65,93.59h.21a1.86,1.86,0,0,0,1.89-1.66l3-26.9a1.62,1.62,0,0,0-.64-1.54,1.89,1.89,0,0,0-1.86-.18,1.84,1.84,0,0,0-1.1,1.5l-3,26.9A1.66,1.66,0,0,0,65,93.59Zm2.44-28.66Z"/><path class="cls-1" d="M69.68,93.08a1.89,1.89,0,0,0,1.32.54,1.68,1.68,0,0,0,.5-.07,1.71,1.71,0,0,0,1.2-1.26l6.6-26.08a1.76,1.76,0,0,0-.47-1.71A1.92,1.92,0,0,0,77,64a1.69,1.69,0,0,0-1.2,1.26L69.2,91.37A1.74,1.74,0,0,0,69.68,93.08Z"/><path class="cls-1" d="M36.48,29.55c6.07,1.87,9,8.18,9.14,13.61a1.79,1.79,0,0,0,1.83,1.74h.06a1.73,1.73,0,0,0,1.72-1.81c-.22-6.73-3.93-14.6-11.73-17a1.7,1.7,0,0,0-1.7.37,1.9,1.9,0,0,0-.54,1.8A1.78,1.78,0,0,0,36.48,29.55Zm.29-.94Z"/><path class="cls-1" d="M35.86,34.49h0a10,10,0,0,1,5.71,8.18,1.83,1.83,0,0,0,1.09,1.5,1.86,1.86,0,0,0,.8.17A1.82,1.82,0,0,0,44.52,44a1.63,1.63,0,0,0,.65-1.54c-.52-5-3.55-9.45-7.72-11.22a1.91,1.91,0,0,0-2.48,1A1.62,1.62,0,0,0,35.86,34.49Z"/><path class="cls-1" d="M76.3,25h0a1.83,1.83,0,0,0-2.47.85,1.69,1.69,0,0,0,.76,2.33c4.53,2.28,9.5,7.36,8.59,14.17a1.64,1.64,0,0,0,.6,1.54,1.85,1.85,0,0,0,1.1.35,2,2,0,0,0,.75-.15,1.84,1.84,0,0,0,1.15-1.48C87.84,34.62,82.28,28,76.3,25Z"/><path class="cls-1" d="M75.17,28.94a1.75,1.75,0,0,0-2.44.64,1.77,1.77,0,0,0,.6,2.48,10,10,0,0,1,5.11,8.57,1.73,1.73,0,0,0,1.72,1.81h.06a1.79,1.79,0,0,0,1.83-1.74A13.62,13.62,0,0,0,75.17,28.94Z"/></svg>