<svg xmlns="http://www.w3.org/2000/svg" viewBox="0 0 157.93 133.28"><defs><style>.cls-1{fill:#2a2d36;}.cls-2{fill:#dcad4d;}.cls-3{fill:none;}.cls-4{fill:#fff;}</style></defs><g id="Réteg_2" data-name="Réteg 2"><g id="Réteg_1" data-name="Réteg 1"><path class="cls-1" d="M103.06,86.26v.14l-.11,0h0A1.49,1.49,0,0,0,103.06,86.26Z"/><path class="cls-2" d="M95.79,54.08l-.15.58a4.32,4.32,0,0,1-.21.38h0a.67.67,0,0,1-.09.14l-.39-.07h0a4.79,4.79,0,0,1-.55,0l0-.07,0-.08.31-.9Z"/><path class="cls-2" d="M94.3,32.07h-1l-.31-.91c-.56-1.47-1-1.95-3.22-1.95h-6v-.89h7.49a3.76,3.76,0,0,1,2.31.5Z"/><path class="cls-2" d="M89.6,42.06v2.2h-1v-.42c0-.72-.68-1.24-1.61-1.24H83.68v-.89h4.77A1.89,1.89,0,0,1,89.6,42.06Z"/><path class="cls-2" d="M116.67,55.87l0,0h0a4.07,4.07,0,0,1-.59.4,2,2,0,0,0,.19-.24h0c1.64-2.08,1.55-5.37,1.55-7.08,0-3.27-1.09-9-5.89-9h-1.82v-.92h3c4.8,0,5.9,5.7,5.9,9C119,50,119.05,53.93,116.67,55.87Z"/><path class="cls-2" d="M57.67,62.09a19,19,0,0,1-9.46,2.52H44.34v-1h5.87A19,19,0,0,0,57.67,62.09Z"/><path class="cls-2" d="M16.23,46.7a4.48,4.48,0,0,1,1-2.91,4.85,4.85,0,0,0-2,3.91l.07.6a5.16,5.16,0,0,1,1-1.24Z"/><path class="cls-2" d="M28.22,52.66a5.63,5.63,0,0,1-1,1.17h0a2.91,2.91,0,0,1-.27.24l.13-.18s0,0,0,0a4.21,4.21,0,0,0,.38-.59,5.29,5.29,0,0,0-.75-6.44,5.64,5.64,0,0,0-3.45-1.58,10,10,0,0,0-3.73.22A14.77,14.77,0,0,0,18,46l-.2.09a6,6,0,0,0-1.14.65,4.65,4.65,0,0,1,1.09-1.08,6.41,6.41,0,0,1,1-.54s0,0,0,0a13,13,0,0,1,1.78-.64,10,10,0,0,1,3.73-.22,5.64,5.64,0,0,1,3.45,1.58A5.32,5.32,0,0,1,28.22,52.66Z"/><path class="cls-2" d="M73.5,57.58a.93.93,0,0,1,0-.32,5.69,5.69,0,0,1,.77-.68,2.26,2.26,0,0,0,.44-.22,3.56,3.56,0,0,0,.53-2.22V30.8c0-.91-.06-2.38-1.3-2.76a.83.83,0,0,1-.25-.12H72.37a.63.63,0,0,0,.5.72c1.24.38,1.3,1.86,1.3,2.76V54.75c0,.9-.06,2.33-1.3,2.71a.69.69,0,0,0-.5.72H84c.23-.19.46-.36.71-.53l.09-.07Z"/><path class="cls-2" d="M29.91,88.2a1.42,1.42,0,0,1,.81-1.35c1.8-.72,1.89-3.42,1.89-5.13V36.55c0-1.71-.18-4-1.89-4.59a1.23,1.23,0,0,1-.61-.55H28.59a1.42,1.42,0,0,0,.81,1.35c1.71.63,1.89,2.88,1.89,4.59V45c1.7,2.92,1.47,6.56.45,9.62q-.19.54-.45,1.11h0V82.52c0,1.71-.09,4.41-1.89,5.13A1.42,1.42,0,0,0,28.59,89H43.53a1.67,1.67,0,0,0-.22-.8Z"/><path class="cls-2" d="M35.47,14.84A30.22,30.22,0,0,0,26.86,16a30.73,30.73,0,0,1,7.22-.82c11.52,0,24.66,7.29,24.66,26,0,7.78-2.94,14.93-7.19,18.5a11.06,11.06,0,0,1-1.19.88A10.2,10.2,0,0,0,53.17,59a14.52,14.52,0,0,0,1.25-1.12c3.43-3.86,5.71-10.21,5.71-17C60.13,22.13,47,14.84,35.47,14.84Z"/><path class="cls-2" d="M19.05,63.47a16.35,16.35,0,0,1-2.88-.27C-1.58,60.7-4.58,31.92,13.74,18.84l0,0c.26-.19.52-.37.79-.54.76-.5,1.55-1,2.38-1.42l-.22.11c-23,11.33-20.95,44.25-1.91,46.93a16.35,16.35,0,0,0,2.88.27,11.72,11.72,0,0,0,6-1.51A12.46,12.46,0,0,1,19.05,63.47Z"/><path class="cls-3" d="M117.54,55.3a2.37,2.37,0,0,1-.3.23,3.54,3.54,0,0,1-.41.26l-.16.08,0,0-.12.06h0l-.08,0-.15.05h0l-.22.07-.38.1-.34.06h-.07l-.22,0-.46,0h-3V38.42h3c4.8,0,5.9,2.57,5.9,5.83C120.43,46.34,120.56,52.76,117.54,55.3Z"/><path class="cls-3" d="M126.47,69.27c0,.58,0,1.14,0,1.68,0,.22,0,.44,0,.65s0,.54-.07.8h0c0,.32-.07.64-.12,1a.5.5,0,0,1,0,.12c0,.3-.09.59-.15.88s-.11.55-.17.81-.13.52-.21.77-.12.44-.19.65-.2.6-.32.89a8.66,8.66,0,0,1-.45,1c-.11.24-.23.47-.36.7a.59.59,0,0,1,0,.08c-.11.2-.22.39-.35.58a11.3,11.3,0,0,1-1.31,1.72c-.12.14-.26.29-.4.43s-.54.51-.82.75-.38.31-.58.45-.47.34-.71.49-.38.24-.58.34a0,0,0,0,1,0,0c-.22.13-.44.25-.67.36s-.78.37-1.18.53c-.21.09-.43.18-.65.25s-.4.14-.61.21l-.48.14a24.17,24.17,0,0,1-3.64.75,3.91,3.91,0,0,1-.74-2.71V58.08h3.78C121.23,58.08,126.47,61.33,126.47,69.27Z"/><path class="cls-3" d="M96.57,67.33a5.68,5.68,0,0,1-1.36,1.26,1.81,1.81,0,0,1-.21.18,5.17,5.17,0,0,0,.5-.55,3.78,3.78,0,0,0,.64-.56C96.29,67.56,96.43,67.44,96.57,67.33Z"/><path class="cls-3" d="M78.8,63.84l.38.16-.39-.14Z"/><path class="cls-3" d="M82.1,59.31a13.18,13.18,0,0,0-2.31,2.75l-.39-.18A12.69,12.69,0,0,1,82.1,59.31Z"/><path class="cls-3" d="M75.31,57.29h9.92a6.33,6.33,0,0,0-.54.36,9,9,0,0,0-.73.53H75.31Z"/><path class="cls-3" d="M75.62,53.86a4.31,4.31,0,0,1-.31,1.87V48.79h.31Z"/><path class="cls-3" d="M87,56.38H75.31v-.32a.64.64,0,0,1,.44-.4c1.24-.38,1.3-1.81,1.3-2.72V48.79h6.63v6.35h8.15l-.45,0h0c-.33,0-.65.09-1,.15l-.38.08c-.21,0-.42.08-.63.14l-.29.08a8.16,8.16,0,0,0-.88.26q-.46.15-.9.33l-.35.15Z"/><path class="cls-3" d="M94.64,55.08l-.24,0,0-.08.31-.9h1.05l-.15.58a4.32,4.32,0,0,1-.21.38c1-.2,1.46-.75,1.88-1.86l.31-.9h1l-.93,3.64a8.52,8.52,0,0,0-2.41-.74l-.39-.07h0Z"/><path class="cls-3" d="M103.06,48.79V86.26a1.49,1.49,0,0,1-.14.12c-.16,0-.3,0-.45-.06l-.84-.12c-.49-.08-1-.16-1.44-.26l-.14,0-.66-.15c-.48-.11-.94-.24-1.39-.37l-.62-.19c-.67-.23-1.31-.47-1.92-.74-.2-.09-.4-.17-.59-.27s-.49-.24-.73-.36l-.67-.37q-.64-.37-1.23-.78l-.47-.33c-.27-.2-.54-.41-.79-.62l-.19-.16-.72-.66c-.23-.23-.46-.46-.67-.7a1.14,1.14,0,0,1-.11-.11c-.21-.25-.42-.5-.62-.76s-.38-.5-.55-.76a.64.64,0,0,1-.1-.13c-.17-.25-.33-.51-.48-.77l-.46-.86c-.18-.35-.33-.71-.48-1.06-.07-.18-.14-.37-.2-.56l-.18-.56s0,0,0-.07a.14.14,0,0,1,0-.06l-.08-.32c0-.16-.08-.31-.11-.47s-.07-.27-.1-.41h0a14.68,14.68,0,0,0,1.79.54,14.32,14.32,0,0,0,8.6-.32h0c.26-.15.52-.3.76-.47a3.17,3.17,0,0,1-.34.3,8.42,8.42,0,0,0,4.39-3.9c.12-.24.23-.49.33-.74a10.1,10.1,0,0,0-.33-7.71V48.79Z"/><path class="cls-3" d="M76.48,69.7c-.37-.17-.76-.35-1.17-.52v0C75.73,69.34,76.12,69.52,76.48,69.7Z"/><path class="cls-3" d="M75.31,70.61l.35.17.85.49C76.83,80.42,85,90.55,103.06,91"/><path class="cls-2" d="M141.89,56.87a5.24,5.24,0,0,1-1.77,1.46,5.78,5.78,0,0,1,0-.58A6,6,0,0,0,141.89,56.87Z"/><path class="cls-2" d="M140.1,54.61a2.35,2.35,0,0,1-.55.17c.66-1.81-.27-4.08-2.85-3.7,0,0,.12-.7,1.13-1C140.71,49.74,141.44,52.8,140.1,54.61Z"/><path class="cls-2" d="M152.13,57.48c0,4-.76,9.43-3.26,12.05h0a2,2,0,0,1-.29.15c1.94-2.83,2.56-7.62,2.56-11.2,0-10.86-4.84-14.95-9.55-14.95a10.87,10.87,0,0,0-5.64,1.38,6.84,6.84,0,0,1,.71-.82,10.52,10.52,0,0,1,5.43-1.54,14.89,14.89,0,0,1,3.82.72C149.32,44.87,152.13,49.2,152.13,57.48Z"/><path class="cls-2" d="M145.08,72.21c-7.3,0-11.08-6.46-11.21-14.36a7.19,7.19,0,0,1-3.82-6.42,8.82,8.82,0,0,1,1.23-4.58,8.75,8.75,0,0,0-1.83,5.48,7.2,7.2,0,0,0,3.81,6.42c.13,7.9,3.91,14.36,11.21,14.36a9.78,9.78,0,0,0,7.64-3.43A9.58,9.58,0,0,1,148,71.82,11.07,11.07,0,0,1,145.08,72.21Z"/><path class="cls-3" d="M76.48,69.7c-.37-.17-.76-.35-1.17-.52-4-1.69-9.86-3.34-12.83-1.63l-.22.14a5.67,5.67,0,0,0-.79.6,4.91,4.91,0,0,1,.49-.52,6,6,0,0,1,1.1-.93,0,0,0,0,1,0,0c3.34-.92,8.71.74,12.23,2.31C75.73,69.34,76.12,69.52,76.48,69.7Z"/><path class="cls-2" d="M97.45,62.5a8.92,8.92,0,0,1-.17,1.94,6.26,6.26,0,0,1-1.22,2.64,5,5,0,0,1-.44.32A3.18,3.18,0,0,1,95,68a6.83,6.83,0,0,0,1.36-4.51,6.39,6.39,0,0,0-4.46-1.31,8.09,8.09,0,0,0-3,.56,7.78,7.78,0,0,1,1.28-1h0A8.1,8.1,0,0,1,93,61.23a8.22,8.22,0,0,1,3.1.49A4.79,4.79,0,0,1,97.45,62.5Z"/><path class="cls-2" d="M59,67.28a15.78,15.78,0,0,0-5.4,7.58,17.57,17.57,0,0,0,.2,12.41c1.31,3.23,4.21,6,7.7,5.86a4.75,4.75,0,0,0,3.72-1.59,5.33,5.33,0,0,1-2.59.67c-3.49.09-6.4-2.63-7.71-5.86a17.6,17.6,0,0,1-.19-12.42,16,16,0,0,1,4.05-6.41l.17-.18Z"/><path class="cls-3" d="M123.82,70.86c0-7.94-5.24-11.19-11.13-11.19h-1.14V83.59a3.91,3.91,0,0,0,.74,2.71,24.17,24.17,0,0,0,3.64-.75l.48-.14c.21-.07.41-.13.61-.21s.44-.16.65-.25c.4-.16.8-.34,1.18-.53s.45-.23.67-.36a0,0,0,0,0,0,0C122.21,81.2,123.82,77,123.82,70.86Z"/><path class="cls-3" d="M111.55,56.35h3l.46,0,.22,0h.07l.34-.06.38-.1.22-.07a2,2,0,0,1-.19.24,4.07,4.07,0,0,0,.59-.4h0l.2-.12a3.54,3.54,0,0,0,.41-.26,1.33,1.33,0,0,0,.3-.23c3.11-2.5,3.11-9,2.89-11,0-3.26-1.1-5.83-5.9-5.83h-3v.67h-1.48V40h1.48Z"/><path class="cls-3" d="M97.34,56.38h.28c-.16-.13-.32-.24-.48-.35C97.21,56.14,97.28,56.25,97.34,56.38Z"/><path class="cls-3" d="M115.33,58.08h-3.78v.66h2.3c5.9,0,11.14,3.25,11.14,11.19,0,6.54-1.86,10.93-4.88,13.78.24-.15.48-.32.71-.49s.39-.29.58-.45.56-.49.82-.75.28-.29.4-.43a11.3,11.3,0,0,0,1.31-1.72c.13-.19.24-.38.35-.58a.59.59,0,0,0,0-.08c.13-.23.25-.46.36-.7a8.66,8.66,0,0,0,.45-1c.12-.29.22-.58.32-.89s.14-.43.19-.65.14-.51.21-.77.12-.53.17-.81.11-.58.15-.88a.5.5,0,0,0,0-.12c0-.31.09-.63.12-1h0c0-.26,0-.53.07-.8s0-.43,0-.65c0-.54,0-1.1,0-1.68C126.47,61.33,121.23,58.08,115.33,58.08Z"/><path class="cls-2" d="M113.85,58.74h-3.78v.93h2.62c5.89,0,11.13,3.25,11.13,11.19,0,6.1-1.61,10.34-4.29,13.19a0,0,0,0,1,0,0,11.5,11.5,0,0,1-.86.85,12.65,12.65,0,0,0,1.45-1.2c3-2.85,4.88-7.24,4.88-13.78C125,62,119.75,58.74,113.85,58.74Z"/><path class="cls-4" d="M97.62,56.38h-.28c-.06-.13-.13-.24-.2-.36.16.11.32.22.48.35Z"/><path class="cls-4" d="M94.92,55.11a4.79,4.79,0,0,1-.55,0H92l.13,0h.16l.28,0c.39,0,.79,0,1.2,0,.13,0,.32,0,.68,0l.24,0Z"/><path class="cls-4" d="M97.62,56.37h-.28c-.06-.13-.13-.24-.2-.36C97.3,56.13,97.46,56.24,97.62,56.37Z"/><path class="cls-2" d="M97.07,73.07a3.17,3.17,0,0,1-.34.3c-2.61,2.3-6.67,2.95-10.11,2.39h0c-.07-.18-.14-.37-.2-.56l-.18-.56s0,0,0-.07a.14.14,0,0,1,0-.06h0l.07,0a13.88,13.88,0,0,0,10-1h0C96.57,73.39,96.83,73.24,97.07,73.07Z"/><path class="cls-2" d="M102.28,41.91v40.2a24.42,24.42,0,0,1-.33,4l-.83-.11V69.47c.12-.24.23-.49.33-.74a10.1,10.1,0,0,0-.33-7.71V42.83c0-1.21-.07-3.14-1.53-3.65a.92.92,0,0,1-.58-1h1.69l0,0C102.21,38.77,102.28,40.69,102.28,41.91Z"/><path class="cls-2" d="M77.82,72.05a15.88,15.88,0,0,1-.15-1.68l-.82-.49-.06,0-.27-.13,0,0c-.36-.18-.75-.36-1.17-.55-3.52-1.57-8.89-3.23-12.23-2.31a0,0,0,0,0,0,0,5.19,5.19,0,0,0-1.1.46A7.2,7.2,0,0,0,61,68c-.08.1-.18.19-.26.29l.15-.1A4.61,4.61,0,0,1,62,67.77l.3-.08C66,66.85,72,69,75.31,70.61l.35.17.85.49C76.83,80.42,85,90.55,103.06,91v-1C86.93,89.25,79,80.5,77.82,72.05Z"/><path class="cls-2" d="M82.1,59.31a13.18,13.18,0,0,0-2.31,2.75l-.39-.18A12.69,12.69,0,0,1,82.1,59.31Z"/><path class="cls-2" d="M79.18,64l-.39-.14v0Z"/><path class="cls-2" d="M125.52,84.82c-5.19,4.5-13.13,6.23-21.12,6.23l-1.34,0v-1c.81,0,1.65.07,2.5.07C113,90.13,120.34,88.63,125.52,84.82Z"/><path class="cls-4" d="M97.62,56.37h-.28c-.06-.13-.13-.24-.2-.36C97.3,56.13,97.46,56.24,97.62,56.37Z"/><path class="cls-1" d="M38.13,11.13c-9,0-16,2.26-21.4,5.83-.27.17-.53.35-.79.54l0,0C-2.42,30.61.58,59.39,18.33,61.89a16.35,16.35,0,0,0,2.88.27,10.94,10.94,0,0,0,7.66-2.7,9.6,9.6,0,0,0,2.39-3.62l0-.06h0q.26-.57.45-1.11c1-3.06,1.25-6.7-.45-9.62a6.3,6.3,0,0,0-.54-.84c-1.61-1.86-3.46-3.45-6-3.83-3.16-.52-7.09,1.94-7,5.3v0l.05.4,0,.2L18,46a4.91,4.91,0,0,1,.72-.88s0,0,0,0A7.52,7.52,0,0,1,22,43.48a10,10,0,0,1,3.72-.22,5.64,5.64,0,0,1,3.45,1.58,5.53,5.53,0,0,1-.91,8.35,5.89,5.89,0,0,1-1.09.64h0a.19.19,0,0,1-.1,0l-.3.1a11.92,11.92,0,0,1-3.4.45C4.92,54.42,6.09,13.2,37.59,13.2c11.52,0,24.66,7.29,24.66,26,0,8.9-3.84,17-9.08,19.81a8.76,8.76,0,0,1-1.62.69,8.08,8.08,0,0,1-2.44.38H44.34V34.9c.09-1.71.45-3.51,1.89-4.14A1.42,1.42,0,0,0,47,29.41H32.1a1.42,1.42,0,0,0,.81,1.35c1.71.63,1.89,2.88,1.89,4.59V80.52c0,1.71-.09,4.41-1.89,5.13A1.42,1.42,0,0,0,32.1,87H47a1.42,1.42,0,0,0-.81-1.35c-1.71-.63-1.8-3.06-1.89-4.77V62.61h7.38c10.08,0,20-7.92,20-23.4C71.7,20.4,55.05,11.13,38.13,11.13Z"/><path class="cls-1" d="M131.7,50.33a7.19,7.19,0,0,0,3.82,6.42c.13,7.9,3.91,14.36,11.21,14.36s11.2-6.66,11.2-14.63C157.93,35.58,131.7,37,131.7,50.33Zm17.17,19.2h0a2,2,0,0,1-.29.15h0a4.37,4.37,0,0,1-1.83.38c-4.74,0-6.3-6.48-6.61-11.73a5.78,5.78,0,0,1,0-.58c0-.25,0-.49,0-.73,6.75-.78,6.71-9.38.68-9.07-1.61.12-1.82,1.17-1.78,1.13,3.68-.54,4,4.33,1.14,5.53a2.35,2.35,0,0,1-.55.17,3.22,3.22,0,0,1-.84.1c-4.13,0-5.74-6-2.77-10a6.84,6.84,0,0,1,.71-.82,9.84,9.84,0,0,1,7.19-2.56c4.71,0,9.55,4.09,9.55,14.95C153.39,61.06,152.38,67.63,148.87,69.53Z"/><path class="cls-1" d="M133.21,65.45c-1.86-5.51-5.47-6.94-10.34-8.32l-.13,0h0l-.63-.18c5.53-2,6.11-6.85,6.11-9.54,0-3.65-1-10.75-13.39-10.75H101.65a.92.92,0,0,0,.58,1c1.46.51,1.53,2.43,1.53,3.65V83.53a4.16,4.16,0,0,1-.7,2.73v0l-.11.1h0c-.16,0-.3,0-.45-.06l-.84-.12c-.49-.08-1-.16-1.44-.26l-.14,0-.66-.15c-.48-.11-.94-.24-1.39-.37l-.62-.19c-.67-.23-1.31-.47-1.92-.74-.2-.09-.4-.17-.59-.27s-.49-.24-.73-.36l-.67-.37q-.64-.37-1.23-.78l-.47-.33c-.27-.2-.54-.41-.79-.62l-.19-.16-.72-.66c-.23-.23-.46-.46-.67-.7a1.14,1.14,0,0,1-.11-.11c-.21-.25-.42-.5-.62-.76s-.38-.5-.55-.76a.64.64,0,0,1-.1-.13c-.17-.25-.33-.51-.48-.77l-.46-.86c-.14-.29-.27-.59-.39-.88l-.07-.18c-.08-.18-.15-.37-.22-.56l-.18-.56s0,0,0-.07a.13.13,0,0,1,0-.06l-.09-.32c0-.16-.08-.31-.11-.47s-.06-.27-.08-.4a14.68,14.68,0,0,0,1.79.54,14.32,14.32,0,0,0,8.6-.32h0c.15-.05.28-.11.42-.17a8.42,8.42,0,0,0,4.39-3.9c.12-.24.23-.49.33-.74a10.1,10.1,0,0,0-.33-7.71c-.11-.27-.23-.52-.36-.77a5.34,5.34,0,0,0-1.41-3.19,5.64,5.64,0,0,0-1.61-1.14l.93-3.64h-1l-.31.9c-.42,1.11-.83,1.66-1.88,1.86h0l-.48.07h0a4.79,4.79,0,0,1-.55,0H83.68V40.8h6.2c.93,0,1.61.52,1.61,1.23v.43h1V37.84h-1v.48c0,.71-.68,1.24-1.61,1.24h-6.2V27.41H92.6c2.17,0,2.67.47,3.22,1.95l.31.91h1.06l-1.06-4.15H75.26a.63.63,0,0,0,.49.72c1.24.38,1.3,1.85,1.3,2.76V52.94c0,.91-.06,2.34-1.3,2.72a.64.64,0,0,0-.44.4.93.93,0,0,0,0,.32H87l-.38.18-.34.16q-.51.27-1,.57h0a6.33,6.33,0,0,0-.54.36c-.25.17-.48.34-.71.53s-.26.2-.38.31l-.36.33c-.23.21-.44.43-.65.65s-.4.45-.59.69-.31.4-.46.61l-.12.18a11.13,11.13,0,0,0-.87,1.49l.92.47,1.43.82c1.63.93,2.73,1.63,3.73,2.15.09-.2.18-.39.28-.57s.16-.31.25-.46a9.67,9.67,0,0,1,1.16-1.59c.14-.15.28-.29.43-.43l.12-.11h0a7.78,7.78,0,0,1,1.28-1h0l0,0,.45-.25q.33-.16.66-.3l.52-.2a8.67,8.67,0,0,1,1.36-.31,8.24,8.24,0,0,1,1.33-.1,6.46,6.46,0,0,1,4.38,1.23,6.47,6.47,0,0,1-2.33,5.54c-.14.11-.28.23-.43.33a3.78,3.78,0,0,1-.64.56,6.77,6.77,0,0,1-2.55,1,11.47,11.47,0,0,1-7-1.4c-.3-.14-.59-.3-.88-.46l-.34-.19c-.25-.13-.48-.27-.72-.42l-.39-.23a2.61,2.61,0,0,1-.28-.17l-.49-.3a19.76,19.76,0,0,0-3.1-1.74l-.41-.19-.11,0-.09,0-.39-.14a20,20,0,0,0-3.48-1c-5.84-1.17-11.88.35-15.84,4.75l-.18.19a16.36,16.36,0,0,0-3.12,5.48,17.65,17.65,0,0,0,.19,12.42c1.32,3.23,4.22,5.95,7.71,5.86a4.85,4.85,0,0,0,4.63-3.05c-1.21.48-3.3-.18-4.08-.54a6.43,6.43,0,0,1-3.33-2.5A16.79,16.79,0,0,1,59.51,82c-1.57-4.11-1-10,1.7-13.43.08-.1.17-.19.26-.29a4.91,4.91,0,0,1,.49-.52,6,6,0,0,1,1.1-.93,0,0,0,0,1,0,0,2.2,2.2,0,0,1,.32-.21c2.75-1.59,8-.3,11.91,1.24.68.27,1.31.54,1.88.81l1,.49,0,0,.92.54h0a12.49,12.49,0,0,0,.2,1.6,15.56,15.56,0,0,0,.45,1.85q.19.61.42,1.2c.16.4.33.79.52,1.19a17.85,17.85,0,0,0,1,1.75c.12.19.24.38.37.57a16.93,16.93,0,0,0,1.12,1.48c.33.38.67.76,1,1.14s.76.74,1.16,1.09A25.48,25.48,0,0,0,94,86.41c.56.19,1.13.37,1.72.53q1.32.38,2.76.66c1,.18,2,.34,3,.46l.45,0,.57.07.58.06c1.27.1,2.59.17,4,.17,12.27,0,24.44-3.23,26.7-15A15.74,15.74,0,0,0,133.21,65.45Zm-21.66-27h3c4.14.1,5.62,3.22,5.9,5.83.22,2.09.22,8.55-2.89,11a1.33,1.33,0,0,1-.3.23,3.54,3.54,0,0,1-.41.26l-.2.12h0l-.12.05h0l-.08,0-.15.05h0l-.22.07-.38.1-.34.06h-.07l-.22,0-.46,0h-3ZM126.42,71c0,.22,0,.44,0,.65s0,.54-.07.8h0c0,.32-.07.64-.12,1a.5.5,0,0,1,0,.12c0,.3-.09.6-.15.88s-.11.55-.17.81-.13.52-.21.77-.12.44-.19.65-.2.6-.32.89a8.66,8.66,0,0,1-.45,1c-.11.24-.23.47-.36.7a.59.59,0,0,1,0,.08c-.11.2-.22.39-.35.58a11.3,11.3,0,0,1-1.31,1.72c-.12.14-.26.29-.4.43s-.54.51-.82.75-.38.31-.58.45-.47.34-.71.49-.38.24-.58.34a0,0,0,0,1,0,0c-.22.13-.44.25-.67.36s-.78.37-1.18.53c-.21.09-.43.18-.65.25s-.4.14-.61.21l-.48.14a24.17,24.17,0,0,1-3.64.75,3.91,3.91,0,0,1-.74-2.71V58.08h3.78c5.9,0,11.14,3.25,11.14,11.19C126.47,69.85,126.46,70.41,126.42,71Z"/><path class="cls-3" d="M121.31,116.17a62.25,62.25,0,0,1-76.44,0h4.74a59.41,59.41,0,0,0,31.82,10.27q.81,0,1.62,0a60,60,0,0,0,33.55-10.3Z"/><path class="cls-3" d="M115.58,116.17a58.93,58.93,0,0,1-65.06,0Z"/><path class="cls-2" d="M141.89,77.59c-.2,1.06-.43,2.14-.69,3.22A59.11,59.11,0,0,1,136.26,94h-.56a58.37,58.37,0,0,0,5-13.3c.26-1.07.49-2.14.69-3.19Z"/><path class="cls-2" d="M134.8,37.6A59.66,59.66,0,0,0,84.68,7.34a58.91,58.91,0,0,0-24.22,4.43l-.19-.46A59.35,59.35,0,0,1,84.69,6.84a60.18,60.18,0,0,1,50.55,30.51Z"/><path class="cls-2" d="M116.6,116.17a60,60,0,0,1-33.55,10.3q-.81,0-1.62,0a59.41,59.41,0,0,1-31.82-10.27h.91a58.93,58.93,0,0,0,65.06,0Z"/><path class="cls-2" d="M30.45,94h-.56A59,59,0,0,1,23.3,69.31l.5,0A58.62,58.62,0,0,0,30.45,94Z"/><path class="cls-1" d="M144.68,78.11c-.2,1.09-.44,2.2-.71,3.3a61.35,61.35,0,0,1-5.64,14.74,4.81,4.81,0,0,1-1.21-1.71l-.19-.45H29.19l-.19.45a4.84,4.84,0,0,1-1.15,1.65,62,62,0,0,1-7.34-26.66l-4,.18a66,66,0,0,0,8.8,30.16v13.09l.63.1a4.18,4.18,0,0,1,3.12,2.74l.19.47h9.36a66.46,66.46,0,0,0,42.66,17.09l1.8,0a66.82,66.82,0,0,0,44.48-17.11h9.32l.19-.47a4.17,4.17,0,0,1,3.06-2.73l.61-.11V100a65.3,65.3,0,0,0,7.13-17.69c.29-1.17.54-2.36.75-3.52Zm-63.3,51.15a62.35,62.35,0,0,1-36.51-13.09h76.44A62.71,62.71,0,0,1,81.38,129.26Zm57.85-17.62a5.71,5.71,0,0,0-3.35,3H30.25a5.69,5.69,0,0,0-3.44-3V98.39a5.33,5.33,0,0,0,1.77-1,6.08,6.08,0,0,0,1.58-2H136a5.87,5.87,0,0,0,1.64,2,4.94,4.94,0,0,0,1.63.9Z"/><path class="cls-1" d="M84.79,4a63,63,0,0,1,52.93,32l3.48-2A67,67,0,0,0,84.9,0,66.23,66.23,0,0,0,57.13,5.24l1.56,3.69A62.3,62.3,0,0,1,84.79,4Z"/><path class="cls-2" d="M136.33,99.6h0a3.59,3.59,0,0,1-2.09-1.93,1.4,1.4,0,0,1-.1-.16l-.07-.13h-102l-.14.25,0,0a3.24,3.24,0,0,1-2.06,1.88l-.12,0-.16.06v10.8l.16.06a3.46,3.46,0,0,1,2.34,2.21l.07.13H134l.07-.13a3.74,3.74,0,0,1,2.27-2.2l.15-.07V99.65ZM136,110.13a4.08,4.08,0,0,0-2.29,2.23H32.44a3.73,3.73,0,0,0-2.37-2.24V100l0,0a3.48,3.48,0,0,0,2.13-1.87,2,2,0,0,1,.11-.2l0,0H133.75c.05.1.11.17.16.26A4,4,0,0,0,136,100Z"/><path class="cls-1" d="M33.46,104v1.83h1.72V104Z"/><path class="cls-1" d="M42.3,99.7l-1.08,1.13h1.07l1.42-1.13Zm-.77,8v-2.34h1.63v-1.06H41.53v-1.92h1.72v-1.06H40.38v7.44h2.89l.14-1.06Z"/><path class="cls-1" d="M45.16,101.29v1.06h1.19v6.38H47.5v-6.38h1.2v-1.06Z"/><path class="cls-1" d="M50.46,101.29v1.06h1.19v6.38H52.8v-6.38H54v-1.06Z"/><path class="cls-1" d="M57.1,107.67v-2.34h1.63v-1.06H57.1v-1.92h1.73v-1.06H56v7.44h2.89l.14-1.06Z"/><path class="cls-1" d="M64.38,103.36v-.28c0-1.34-.67-1.79-1.81-1.79H61v7.44h1.14V105.4h.27c.67,0,.78.21.78,1.12a15.8,15.8,0,0,0,.08,2.21h1.11a20.42,20.42,0,0,1-.07-2.29c0-1-.25-1.32-.68-1.53C63.91,104.8,64.38,104.51,64.38,103.36Zm-1.15,0c0,.81-.23,1-.83,1h-.27v-2.22h.33c.65,0,.77.35.77.93Z"/><path class="cls-1" d="M67.82,107.67v-2.34h1.63v-1.06H67.82v-1.92h1.72v-1.06H66.67v7.44h2.89l.14-1.06Z"/><path class="cls-1" d="M75,101.29c-.3,1.78-.7,4-.83,5h0c-.1-1-.39-3.16-.68-5H71.75v7.44h1v-2.64c0-1.28,0-3-.06-3.83h0c.17,1.36.59,4.53.83,6.47h1.08c.32-2.16.73-5.17.9-6.46h0c0,.85,0,2.43,0,3.69v2.77h1.09v-7.44Z"/><path class="cls-1" d="M83.91,99.7l-1.08,1.13H83.9l1.42-1.13Zm-.78,8v-2.34h1.64v-1.06H83.13v-1.92h1.73v-1.06H82v7.44h2.89l.15-1.06Z"/><path class="cls-1" d="M88.89,104.23c-.66-.47-.75-.73-.75-1.26s.09-.81.47-.81.47.31.47.83v.36h1.13V103c0-.81-.21-1.79-1.58-1.79s-1.64,1-1.64,2a2.37,2.37,0,0,0,1.23,2.14c.79.62,1,.87,1,1.67,0,.49-.12.91-.57.91s-.6-.31-.6-.86v-.46H86.87V107c0,1,.34,1.86,1.72,1.86s1.75-1,1.75-2.06A2.66,2.66,0,0,0,88.89,104.23Z"/><path class="cls-1" d="M97.82,104.18l1.36-2.89H97.9c-.41,1-1.05,2.62-1.33,3.36h0v-3.36H95.43v7.44h1.13v-2.35l.48-1,1,3.35h1.25Z"/><path class="cls-1" d="M103.15,99.67l-1.08,1.13h1.07l1.42-1.13Zm.31,1.62h-1.62l-1.2,7.44h1.17l.26-2h1.14l.29,2h1.2Zm-1.25,4.39c.15-1.1.37-2.69.41-3.3h0c.08.84.25,2,.42,3.3Z"/><path class="cls-1" d="M108.74,101.29l-.37,3c-.12,1-.29,2.08-.36,2.88h0c-.07-.85-.23-1.9-.36-2.91l-.39-3H106l1.3,7.44h1.4l1.27-7.44Z"/><path class="cls-1" d="M113.85,99.7l-1.08,1.13h1.07l1.42-1.13Zm-.78,8v-2.34h1.64v-1.06h-1.64v-1.92h1.73v-1.06h-2.87v7.44h2.88l.15-1.06Z"/><path class="cls-1" d="M118.17,107.67l2-5.49v-.89H117v1.06h1.9L116.83,108v.76h3.27l.15-1.06Z"/><path class="cls-1" d="M124.4,99.6l-1.08,1.13h1.07l1.42-1.13Zm-.44,1.58c-1.1,0-1.82.65-1.82,2.07v3.51c0,1.38.54,2.08,1.75,2.08s1.87-.68,1.87-2.1v-3.48C125.76,101.83,125.09,101.18,124,101.18Zm.63,5.69c0,.66-.2.93-.65.93s-.63-.29-.63-.91v-3.74c0-.63.22-.93.63-.93s.65.33.65.92Z"/><path class="cls-1" d="M130.86,104v1.83h1.73V104Z"/></g></g></svg>